<?xml version="1.0" encoding="UTF-8" standalone="no"?>
<svg
   version="1.2"
   width="156.32002mm"
   height="152.13008mm"
   viewBox="0 0 15632.002 15213.008"
   preserveAspectRatio="xMidYMid"
   fill-rule="evenodd"
   stroke-width="28.222"
   stroke-linejoin="round"
   xml:space="preserve"
   id="svg1912"
   sodipodi:docname="Dragon9.svg"
   inkscape:version="1.2.2 (732a01da63, 2022-12-09, custom)"
   xmlns:inkscape="http://www.inkscape.org/namespaces/inkscape"
   xmlns:sodipodi="http://sodipodi.sourceforge.net/DTD/sodipodi-0.dtd"
   xmlns="http://www.w3.org/2000/svg"
   xmlns:svg="http://www.w3.org/2000/svg"
   xmlns:ooo="http://xml.openoffice.org/svg/export"><sodipodi:namedview
   id="namedview1914"
   pagecolor="#ffffff"
   bordercolor="#000000"
   borderopacity="0.25"
   inkscape:showpageshadow="2"
   inkscape:pageopacity="0.0"
   inkscape:pagecheckerboard="0"
   inkscape:deskcolor="#d1d1d1"
   inkscape:document-units="mm"
   showgrid="false"
   inkscape:zoom="1.0432143"
   inkscape:cx="279.90414"
   inkscape:cy="330.22937"
   inkscape:window-width="1850"
   inkscape:window-height="1016"
   inkscape:window-x="0"
   inkscape:window-y="0"
   inkscape:window-maximized="1"
   inkscape:current-layer="layer9" />
 <defs
   class="ClipPathGroup"
   id="defs1847">
  <clipPath
   id="presentation_clip_path"
   clipPathUnits="userSpaceOnUse">
   <rect
   x="0"
   y="0"
   width="18400"
   height="21000"
   id="rect1841" />
  </clipPath>
  <clipPath
   id="presentation_clip_path_shrink"
   clipPathUnits="userSpaceOnUse">
   <rect
   x="18"
   y="21"
   width="18364"
   height="20958"
   id="rect1844" />
  </clipPath>
 </defs>
 <defs
   class="TextShapeIndex"
   id="defs1851">
  <g
   ooo:slide="id1"
   ooo:id-list="id3 id4"
   id="g1849" />
 </defs>
 <defs
   class="EmbeddedBulletChars"
   id="defs1883">
  <g
   id="bullet-char-template-57356"
   transform="matrix(4.8828125e-4,0,0,-4.8828125e-4,0,0)">
   <path
   d="M 580,1141 1163,571 580,0 -4,571 Z"
   id="path1853" />
  </g>
  <g
   id="bullet-char-template-57354"
   transform="matrix(4.8828125e-4,0,0,-4.8828125e-4,0,0)">
   <path
   d="M 8,1128 H 1137 V 0 H 8 Z"
   id="path1856" />
  </g>
  <g
   id="bullet-char-template-10146"
   transform="matrix(4.8828125e-4,0,0,-4.8828125e-4,0,0)">
   <path
   d="M 174,0 602,739 174,1481 1456,739 Z M 1358,739 309,1346 659,739 Z"
   id="path1859" />
  </g>
  <g
   id="bullet-char-template-10132"
   transform="matrix(4.8828125e-4,0,0,-4.8828125e-4,0,0)">
   <path
   d="M 2015,739 1276,0 H 717 l 543,543 H 174 v 393 h 1086 l -543,545 h 557 z"
   id="path1862" />
  </g>
  <g
   id="bullet-char-template-10007"
   transform="matrix(4.8828125e-4,0,0,-4.8828125e-4,0,0)">
   <path
   d="m 0,-2 c -7,16 -16,29 -25,39 l 381,530 c -94,256 -141,385 -141,387 0,25 13,38 40,38 9,0 21,-2 34,-5 21,4 42,12 65,25 l 27,-13 111,-251 280,301 64,-25 24,25 c 21,-10 41,-24 62,-43 C 886,937 835,863 770,784 769,783 710,716 594,584 L 774,223 c 0,-27 -21,-55 -63,-84 l 16,-20 C 717,90 699,76 672,76 641,76 570,178 457,381 L 164,-76 c -22,-34 -53,-51 -92,-51 -42,0 -63,17 -64,51 -7,9 -10,24 -10,44 0,9 1,19 2,30 z"
   id="path1865" />
  </g>
  <g
   id="bullet-char-template-10004"
   transform="matrix(4.8828125e-4,0,0,-4.8828125e-4,0,0)">
   <path
   d="M 285,-33 C 182,-33 111,30 74,156 52,228 41,333 41,471 c 0,78 14,145 41,201 34,71 87,106 158,106 53,0 88,-31 106,-94 l 23,-176 c 8,-64 28,-97 59,-98 l 735,706 c 11,11 33,17 66,17 42,0 63,-15 63,-46 V 965 c 0,-36 -10,-64 -30,-84 L 442,47 C 390,-6 338,-33 285,-33 Z"
   id="path1868" />
  </g>
  <g
   id="bullet-char-template-9679"
   transform="matrix(4.8828125e-4,0,0,-4.8828125e-4,0,0)">
   <path
   d="M 813,0 C 632,0 489,54 383,161 276,268 223,411 223,592 c 0,181 53,324 160,431 106,107 249,161 430,161 179,0 323,-54 432,-161 108,-107 162,-251 162,-431 0,-180 -54,-324 -162,-431 C 1136,54 992,0 813,0 Z"
   id="path1871" />
  </g>
  <g
   id="bullet-char-template-8226"
   transform="matrix(4.8828125e-4,0,0,-4.8828125e-4,0,0)">
   <path
   d="m 346,457 c -73,0 -137,26 -191,78 -54,51 -81,114 -81,188 0,73 27,136 81,188 54,52 118,78 191,78 73,0 134,-26 185,-79 51,-51 77,-114 77,-187 0,-75 -25,-137 -76,-188 -50,-52 -112,-78 -186,-78 z"
   id="path1874" />
  </g>
  <g
   id="bullet-char-template-8211"
   transform="matrix(4.8828125e-4,0,0,-4.8828125e-4,0,0)">
   <path
   d="M -4,459 H 1135 V 606 H -4 Z"
   id="path1877" />
  </g>
  <g
   id="bullet-char-template-61548"
   transform="matrix(4.8828125e-4,0,0,-4.8828125e-4,0,0)">
   <path
   d="m 173,740 c 0,163 58,303 173,419 116,115 255,173 419,173 163,0 302,-58 418,-173 116,-116 174,-256 174,-419 0,-163 -58,-303 -174,-418 C 1067,206 928,148 765,148 601,148 462,206 346,322 231,437 173,577 173,740 Z"
   id="path1880" />
  </g>
 </defs>
 
 
<g
   inkscape:groupmode="layer"
   id="layer9"
   inkscape:label="Layer 1"><path
     fill="#ff0000"
     stroke="none"
     d="m 5345.756,2015.0085 36,-48 -30,4 -29,96 33,-3 z m 119,-27 -42,-27 z m 91,199 4,-6 11,-27 -7,-21 z m -36,44 5,-1 3,-4 z m -163,-161 3,133 25,6 z m -1012,1279 -185,-75 -125,-148 2,-49 -101,234 -80,1 63,-260 49,-100 -34,41 -42,146 -90,100 -207,-227 -34,-264 53,-223 86,-149 283,-115 391,-32 392,-130 112,-6 -43,-165 29,-173 212,-170 376,-120 453,-41 h 339 l 126,-108 140,-110 504,-330.00001 337,-223 312,-394 62,171 44,408 -54,115 -204,159.00001 -17,107 293,-107 506,-329.00001 335,-373 83,-18 -17,188 19,338 -16,146.00001 -158,168 -103,265 -106,63 -170,102 -10,91 -6,21 38,-7 280,-61 333,31 196,139 -238,61 42,133 244,25 369,85 261,181 108,146 -131,6 -143,30 -6,91 89,61 125,25 202,41 239,55 232,110 154,181 25,207 -102,-55 -119,-36 -65,78 18,67 136,79 209,36 261,122 244,175 26,83 66,-43 254,-296 53,-96 94,-459 -50,-637 -115,-448 -170,-426 -280,-464.00001 -61,-313 231,-325 104,17 -49,258 181,218 357,78 664,140.00001 319,162 170,146 615,570 417,482 225,339 17,-4 439,683 428,1052 242,649 225,1247 55,1158 -55,1047 -192,1582.9995 -291,1102 -561,1684 -559,1080 -671,1046 56,-626 5,-672 -99,-520 -148,-352 -223,-114 4,7 -187,23 3,-23 -173,90 -242,78 231,-985 -49,-844 -41,325 -134,128 -54,20 -45,-120 -69,-51 -81,73 -72,536 -144,383 -101,39 -30,-223 -72,24 -163,468 -235,354 h -163 l -413,549 -166,63 v -156 l 30,-122 -71,-32 16,34 -227,284 -232,289 -322,35 -175,110 -255,198 -279,-130 -303,318 -345,111 -14,-212 -57,-54 -359,237 -341,125 -119,-154 -312,149 -307,-28 -61,-130 -275,96 -445,-49 v 5 l -85,-87 -232,-48 -520,-48 -360,-183 -979,-337 -884,-434 -610,-410 -151,-142 -25,41 -459,-381 -270,-342 -350,-391 -651.99995,-1118 -322,-1016.9995 -85.000003,-704 14,-713 146.000003,-897 422,-1205 481.99995,-868 482,-619 -4,-3 180,-274 208,-420 -416,155 -265,158 -307.99995,280 70.99995,-289 261,-352 472,-516 360,-766 -57,-622 -147,-352 -170,-327 270,42 179,73 299,241 241,371 204,636 46,757 -193,1104 -194,352 -204,-689 -61,-30 -388,738 -17,-12 -177,297 -237,428 -312,479 -326.99995,809 -113,501 -71,473 5,506 28,279 71,579 128,342 146.99995,476.9995 170,328 340,487 346,385 383,367 450,289 -7,11 395,201 639,304 690,212 757,106 913,5 681,-97 1442,-463 739,-510 339,-342 -8,-15 35,-160 -315,51 -284,-81 -159,-229 -115,-261 -188,-489 -3,7 -32,-101 -23,-59 2,-4 -56,-173.9995 -126,89.9995 -101,77 -150,17 -80,-60 -59,-80.9995 -46,-124 114,-461 -21,-603 8,-140 -176,-86 -286,-320 -281,-350 -423,-291 -8,-222 75,-101 -164,29 -280,107 26,-231 159,-86 348,33 103,63 85,-24 344,261 129,86 h 35 l -97,-244 4,-290 126,-116 h -2 l -64,-177 -252,-150 200,-92 316,48 216,205 16,59 -11,4 54,-12 194,184 100,474 46,376 139,704 142,414 139,364 6,9 16,-30 58,-1 54,-175 37,-503 53,-466 297,-62 24,-84 -66,-303 -59,-631 -12,-436 -458,-183 -380,-236 -370,-230 -11,209 25,18 3,147 -59,116 -103,80 -27,-10 -13,-205 h 3 l 11,-63 -13,5 -209,12 -131,-37 -143,-236 -190,-19 -357,-230 -226,-67 -446,-211 -286,-98 -363,-91 -208,-6 -274,-200 5,-28 -201,125 -32,188 -132,-139 -10,-312 232,-70 184,-5 -9,73 70,-154 417,-139 238,-42 321,121 399,134 286,199 416,19 476,18 524,206 440,213 131,115 295,126 -3,-17 148,73 -53,-328 -78,-346 -214,-436 -279,-546 -334,-461 -398,-358 -452,-195 -284,41 -181,55 -287,29 -403,32 -3,-15 -223,17 -187,115 -120,198 -226,647 -79,-105 -185,-53 -273,-33 -209,-20 103,-35 -86,12 -77,-41 3,-113 204,-23 148,-37 3,-1 -215,36 -128,-89 20,-150 219,31 204,-134 176,-131 36,30 -67,122 -58,95 29,-41 119,-193 133,-252 210,-142 -26,-8 -152,118 -143,94 -288,68 -269,175 -168,176 -129,192 -269,230 -218,81 -243,-47 -130,-98 -130,103 -55,-171 -71,-350 466,164 -26,65 v 129 l 177,31 158,-108 222,-302 109,-160 380,-206 418,-145 152,-12 90,-20 -74,13 -171,11 -390,-56 -75,-17 -15,3 v 60 l 31,80 6,31 -161,-20 -101,20 -12,36 -45,10 -67,-3 z m 627,379 4,-5 32,-30 11,-7 38,-54 -73,79 -13,14 -39,24 z m 569,-805 -17,3 h 26 z m 1792,7017 141,7 154,-41 124,184.9995 -148,61 -164,-17 -101,-58 z m -1647,-6884 141,-51 -48,10 -168,73 -51,44 z m 385,-98 74,-8 70,-15 -124,17 -21,4 z m 313,-75 14,-55 -4,-9 -17,66 -2,1 z m -20,-124 -82,-52 -119,-44 -76,-1 78,15 97,34 104,53 3,5 z m -521,-100 -204,51 -137,40 35,-7 248,-63 165,-20 z m -542,133 h 1 1 z m -660,-63 -162,12 261,11 96,10 z m -248,19 -116,40 186,-45 z m -362,126 -57,70 138,-98 z m 3662,3979 33,-32 -104,36 z m 3494,-2939 55,-53 -27,-2 v -5 l 4,-4 -46,17 z"
     id="path1892"
     style="display:inline" /><path
     fill="#000000"
     stroke="none"
     d="m 4683.756,2894.0085 c 3,-3 10,-4 23,-4 z m -145,24 79,85 134,50 -39,-67 11,-96 c 56,3 174,17 372,46 139,20 220,20 296,0 181,-48 392,-79 520,-76 l 125,3 -123,23 c -356,66 -468,128 -560,309 -73,149 -278,447 -343,503 l -56,49 56,-65 56,-65 -64,-29 c -85,-40 -86,-40 -69,46 13,67 8,75 -47,75 -33,0 -101,-28 -151,-63 -50,-34 -96,-62 -102,-62 -29,0 -5,70 44,133 52,67 61,69 163,46 59,-14 98,-16 86,-5 -36,33 -184,77 -259,77 -47,0 -70,12 -70,39 0,21 10,32 23,24 13,-8 30,-3 38,11 25,40 138,29 251,-22 120,-57 272,-243 389,-477 150,-302 335,-417 754,-466 185,-22 285,-44 313,-72 62,-64 8,-118 -169,-169 -186,-53 -373,-35 -711,70 -201,63 -222,65 -433,38 -460,-59 -583,-62 -751,-19 -253,66 -366,177 -384,382 l -10,121 35,-96 c 39,-103 119,-203 200,-249 51,-29 414,-60 460,-43 z m -214,21 142,170 17,-121 39,-72 z m 8841,12191.9995 c 8,-44 42,-222 75,-394 123,-621 69,-1267 -141,-1705 -48,-100 -207,-179 -324,-160 -104,15 -376,157 -429,222 -17,22 -58,39 -90,39 -48,0 -58,-13 -58,-75 0,-41 26,-147 59,-235 77,-209 130,-422 174,-704 42,-262 49,-616 12,-616 -14,0 -25,12 -25,28 0,15 -22,60 -50,100 -36,52 -71,73 -123,73 -75,0 -80,-7 -109,-138 l -16,-75 -34,65 c -19,36 -40,171 -49,300 -22,350 -49,447 -162,582 -82,98 -114,118 -183,118 -77,0 -85,-6 -85,-74 0,-40 11,-81 25,-89 14,-9 24,-34 23,-58 -2,-86 -81,111 -113,284 -32,169 -130,351 -303,559 -63,77 -157,66 -169,-19 -7,-51 -23,-30 -89,112 -46,100 -141,242 -221,331 -132,147 -148,157 -250,157 -101,0 -108,-4 -107,-69 1,-37 17,-97 36,-131 41,-74 45,-100 14,-100 -12,0 -65,85 -115,189 -100,203 -235,349 -400,435 -121,64 -274,71 -274,13 0,-23 -39,9 -92,73 -51,63 -105,114 -121,115 -16,1 -44,17 -62,34 -37,38 -231,93 -326,93 -52,0 -63,-12 -63,-67 0,-62 -10,-57 -166,97 -104,101 -203,174 -264,194 -54,18 -110,42 -122,54 -13,12 -93,22 -179,22 -154,0 -154,0 -154,-71 0,-57 16,-79 74,-104 40,-17 73,-41 73,-53 0,-43 -44,-20 -211,106 -224,170 -295,198 -501,198 -169,0 -173,-2 -173,-63 v -63 l -130,69 c -108,58 -166,71 -356,78 l -227,9 v -88 -87 l -150,47 c -155,49 -325,59 -524,32 -107,-15 -114,-21 -114,-91 0,-74 -1,-74 -105,-59 -222,35 -644,-73 -878,-225 -48,-30 -148,-69 -222,-86 -74,-17 -147,-40 -160,-50 -13,-9 -212,-83 -443,-162 -230,-80 -467,-170 -528,-201 -61,-32 -195,-92 -296,-135 -102,-43 -350,-180 -552,-304 -201,-124 -373,-225 -382,-225 -8,0 -38,-26 -66,-57 -27,-30 -177,-167 -334,-302 -680,-585 -1379.99995,-1626 -1630.99995,-2423 -36,-118 -76,-226 -87,-241 -37,-47 -143.000003,-491.9995 -169.000003,-710.9995 -30.9999997,-263 -31.9999997,-1076 -1,-1328 34,-271 124.000003,-727 160.000003,-815 17,-42 67,-192 110,-335 120,-399 474,-1184 628,-1394 41,-56 112.99995,-163 158.99995,-239 46,-75 122,-188 168,-250 444,-606 664,-941 635,-971 -20,-21 -195,62 -366,175 -78,51 -152,94 -163,94 -36,0 -247,245 -290,337 -33,71 -56,89 -110.99995,89 -61,0 -69,-9 -69,-80 0,-44 21,-126 48,-182 26,-55 64,-144 83.99995,-196 68,-170 221,-377 486,-660 483,-514 668,-964 589,-1428 -35,-205 -214,-575 -351,-728 -119,-131 -125,-210 -16,-210 42,0 156,24 252,53 733,221 1088,959 1040,2165 -22,557 -117,1040 -271,1372 -60,131 -90,169 -130,169 -59,1 -83,-77 -83,-264 0,-60 -11,-115 -24,-124 -14,-8 -25,-39 -25,-66 0,-55 -101,-297 -124,-297 -7,0 -84,147 -172,328 -87,180 -171,335 -185,344 -30,20 -91,121 -216,361 -49,92 -182,315 -296,496 -116,181 -216,361 -225,402 -8,41 -26,74 -38,74 -13,0 -23,25 -23,57 -1,39 -7,46 -21,23 -22,-34 -182.99995,355 -258.99995,626 -183,649 -204,1631 -49,2274 104,431 306.99995,1003.9995 355.99995,1003.9995 10,0 70,99 134,220 166,315 314,508 630,821 420,417 678,597 1287,900 346,171 613,275 873,340 62,15 133,37 161,49 93,42 373,100 677,141 389,52 1403,38 1701,-24 268,-56 422,-95 450,-115 14,-10 80,-32 147,-49 399,-98 995,-361 1287,-569 85,-60 161,-109 169,-109 48,0 623,-536 623,-581 0,-10 -36,-7 -79,6 -120,35 -289,28 -439,-17 -169,-51 -181,-61 -218,-191 -16,-59 -74,-183 -127,-275 -92,-159 -292,-709 -292,-803 -1,-58 -32,-56 -85,3 -23,27 -80,55 -126,64 -46,9 -131,44 -189,77 -133,78 -240,83 -240,12 0,-40 -17,-50 -88,-50 -124,0 -207,-91 -207,-223.9995 0,-112 30,-127 159,-77 73,29 124,-13 231,-191 59,-97 59,-99 29,-391 -18,-167 -24,-369 -14,-467 l 17,-174 -79,-17 c -110,-25 -281,-193 -355,-348 -33,-71 -86,-157 -117,-193 -58,-67 -300,-248 -333,-249 -10,0 -72,-49 -139,-108 -113,-101 -121,-116 -132,-251 -11,-132 -16,-142 -64,-127 -83,26 -111,60 -143,165 -26,90 -35,98 -104,91 l -76,-7 v -219 c 0,-204 5,-224 66,-286 61,-63 82,-68 283,-69 157,0 237,10 291,40 40,23 113,49 161,56 68,11 115,47 204,152 64,76 139,150 167,165 45,24 47,22 21,-27 -15,-30 -35,-137 -42,-238 -12,-160 -7,-195 43,-286 55,-99 56,-106 15,-147 -29,-30 -82,-44 -171,-44 -125,0 -128,-1 -135,-79 -6,-65 7,-90 81,-147 83,-66 98,-68 282,-56 164,12 200,8 233,-29 21,-24 38,-49 38,-57 0,-8 -60,-19 -133,-25 -159,-14 -309,-113 -309,-205 0,-49 -20,-62 -139,-89 -198,-46 -281,-87 -377,-188 -53,-57 -107,-89 -147,-89 -133,0 -396,-98 -494,-184 -80,-70 -126,-88 -249,-101 -108,-12 -182,-37 -262,-91 -99,-67 -124,-73 -239,-60 -163,20 -285,-21 -410,-136 l -97,-88 -52,53 c -41,42 -51,79 -47,180 6,118 3,125 -55,125 -120,0 -231,-236 -201,-432 23,-160 95,-220 284,-238 131,-12 155,-22 174,-72 12,-33 36,-61 53,-62 18,-2 90,-6 162,-11 73,-4 202,-37 290,-72 87,-36 181,-65 209,-65 61,0 281,92 372,156 37,26 146,62 242,81 121,23 196,53 241,96 112,106 160,117 625,140 249,13 474,35 500,49 26,14 103,45 170,69 68,23 187,81 266,127 79,46 149,84 157,84 8,0 82,44 165,96 178,115 602,317 622,297 45,-47 -163,-761 -261,-897 -26,-36 -81,-140 -122,-232 -40,-92 -95,-198 -122,-236 -26,-37 -82,-133 -125,-213 -116,-221 -361,-506 -574,-671 -230,-176 -539,-336 -617,-316 -29,8 -152,43 -274,78 -184,53 -274,64 -532,64 -426,0 -554,27 -655,138 -53,57 -80,112 -80,161 0,40 -11,81 -25,89 -13,9 -24,66 -24,128 0,61 -11,110 -25,110 -13,0 -25,35 -25,76 0,58 -10,75 -48,75 -44,0 -50,16 -50,125 0,122 -2,126 -70,126 -55,0 -78,-16 -100,-70 -46,-113 -153,-153 -441,-161 -233,-7 -258,-12 -301,-67 -56,-71 -63,-222 -11,-233 27,-6 30,-18 11,-46 -21,-31 -31,-28 -65,26 -202,306 -578,456 -811,323 l -92,-53 -42,53 c -76,96 -133,68 -179,-92 -23,-79 -53,-173 -67,-209 -13,-35 -21,-131 -16,-213 7,-139 11,-148 72,-156 45,-5 86,15 135,65 39,39 127,93 194,118 158,60 184,82 184,151 0,37 -19,62 -55,72 -46,13 -49,19 -19,40 128,85 290,-20 435,-283 78,-140 78,-140 25,-158 -29,-9 -89,-56 -132,-104 l -79,-87 -21,84 c -18,70 -35,86 -95,93 -62,6 -94,-15 -191,-120 -229,-249 -278,-523 -138,-771 111,-197 213,-246 588,-280 234,-22 340,-44 449,-94 l 143,-66 v -133 c 0,-125 6,-139 113,-241 62,-59 142,-124 179,-144 145,-78 415,-127 791,-143 l 381,-16 125,-116 c 69,-63 195,-154 283,-201 87,-46 202,-115.00001 256,-152.00001 54,-37 140,-88 190,-112 201,-96 450,-399 572,-696 32,-80 50,-93.99999952 114,-93.99999952 85,0 85,-5.99999998 21,300.99999952 -27,129 -21,343 15,556 15,89 11,94 -79,132 -162,70.00001 -248,181.00001 -113,148.00001 277,-68 730,-426.00001 983,-777.00001 93,-130 127,-160 183,-160 62,0 69,9 69,83 0,45 -9,94 -21,106 -12,14 -41,84 -64,157 -41,129 -41,166 1,446 15,97.00001 11,104.00001 -61,135.00001 -122,51 -187,165 -187,327 v 138 h -101 c -86,1 -252,73 -226,100 5,5 91,-8 192,-29 230,-46 352,-31 543,66 140,73 148,82 141,158 -7,78 -11,80 -122,80 -63,0 -122,8 -131,17 -36,36 98,74 379,107 161,19 319,48 350,65 112,58 341,308 341,371 0,60 -3,61 -159,45 -97,-11 -163,-7 -173,9 -27,44 137,122 317,150 403,63 468,82 573,169 116,94 204,268 204,399 0,77 -6,85 -73,85 -42,0 -74,-10 -74,-22 0,-33 -113,-76 -145,-55 -64,40 131,140 337,174 220,36 358,107 444,227 l 73,103 83,-74 c 86,-76 178,-245 254,-466 65,-189 61,-726 -7,-1043 -44,-201 -200,-604 -251,-649 -7,-7 -41,-68 -74,-135 -33,-67 -91,-161 -129,-210 -73,-93 -168,-366.00001 -167,-479.00001 0,-36 15,-117 34,-179 27,-94 61,-135 202,-244 134,-105 188,-132 261,-132 82,0 93,7 93,63 0,45 -27,79 -98,125 -147,95 -160,210 -37,344 74,82 212,126 658,209 186,35 399,86.00001 475,113.00001 152,52 305,140 305,175 0,12 38,40 86,63 100,49 298,222 627,551 301,301 517,537 517,567 0,13 96,159 215,325 286,401 383,552 483,761 123,255 317,722 397,953 38,110 77,211 87,226 53,73 214,770 282,1215 21,144 50,331 63,413 52,335 79,1326 51,1910 -25,525 -92,1236 -153,1636 -51,325.9995 -194,948.9995 -246,1064.9995 -12,28 -71,231 -131,452 -176,647 -470,1441 -749,2017 -251,521 -589,1149 -666,1241 -24,28 -119,171 -212,320 -152,240 -177,269 -241,269 -67,0 -70,-5 -57,-82 z m 768,-1326 c 62,-142 134,-301 159,-353 142,-282 430,-1088 538,-1507 100,-388 227,-832 247,-870 30,-55 204,-948 282,-1438.9995 203,-1284 183,-2458 -60,-3558 -27,-125 -84,-384 -125,-576 -42,-194 -90,-368 -108,-389 -18,-21 -95,-235 -170,-476 -144,-458 -236,-711 -252,-694 -9,9 47,189 88,280 80,177 288,1044 334,1391 23,167 45,590 53,1002 16,777 -5,1058 -126,1604 -68,309 -231,904 -259,940 -10,14 -38,87 -62,163 -229,734.9995 -733,1783.9995 -1193,2483.9995 -247,375 -592,856 -698,972 -64,70 -67,79 -20,54 31,-16 131,-35 221,-41 142,-11 179,-5 263,45 102,61 123,94 209,320 98,260 130,548 115,1041 -8,248 -21,493 -30,545 -23,137 18,117 131,-63 164,-259 345,-602 463,-875 z m -6348,756 c 37,41 39,56 13,88 -17,21 -24,46 -16,55 35,35 211,-50 397,-192 220,-168 293,-184 381,-89 56,61 57,64 13,113 -44,49 -43,50 14,50 109,-1 255,-93 416,-260 147,-153 167,-166 264,-166 96,0 105,6 105,63 0,50 12,63 62,63 33,0 61,-11 61,-24 0,-12 23,-31 51,-39 69,-23 206,-177 272,-307 49,-96 63,-107 146,-107 104,0 157,50 134,124 -55,177 240,-115 367,-363 98,-191 106,-199 188,-199 80,0 85,5 92,93 4,51 -5,116 -21,146 -62,118 15,77 163,-87 119,-132 179,-227 249,-395 69,-163 108,-226 148,-236 71,-19 105,5 105,79 0,34 8,61 19,61 10,0 66,-71 125,-159 84,-127 111,-197 138,-354 39,-231 98,-326 200,-326 67,0 72,8 84,111 l 12,111 65,-87 c 83,-112 111,-224 130,-533 18,-290 57,-390 154,-391 49,-1 106,75 106,141 0,88 48,64 109,-56 55,-108 80,-384 53,-573 -17,-111 -114,-252 -165,-235 -14,5 -58,88 -97,184 -101,247 -154,348 -402,775 -121,207 -279,446 -351,531 -72,83 -131,159 -131,166 0,52 -704,769 -757,770 -17,0 -37,17 -45,38 -16,42 -315,288 -351,288 -12,0 -27,11 -31,24 -11,30 -581,331 -812,429 -100,42 -203,87 -229,100 -126,60 -534,180 -935,276 -209,49 -720,124 -854,124 -76,0 -146,11 -155,25 -18,29 -1052,35 -1080,6 -9,-10 -103,-32 -207,-49 l -189,-30 160,9 c 107,6 142,1 105,-13 -30,-12 -191,-20 -357,-17 -194,3 -334,-7 -394,-28 -138,-49 -165,-20 -37,41 283,136 399,159 692,141 301,-18 343,-3 330,118 -6,53 4,61 95,68 67,5 187,-21 339,-73 232,-78 238,-79 288,-33 32,30 46,67 39,104 -9,52 -2,56 99,56 78,0 166,-28 308,-100 226,-113 264,-120 325,-50 z m -668,-265 -236,-45 c -186,-36 -261,-40 -354,-19 -66,14 -207,31 -315,39 -155,10 -173,8 -87,-9 62,-12 175,-30 253,-39 77,-9 141,-25 141,-35 0,-10 -89,-51 -198,-89 -162,-58 -220,-68 -325,-53 -71,9 -196,22 -277,30 -81,8 -156,23 -166,33 -11,10 122,65 295,123 173,59 342,116 376,128 87,32 549,14 736,-28 z m 238,40 c -44,-30 -191,-30 -258,0 -34,14 4,22 123,23 120,1 161,-6 135,-23 z m 684,-82 c -21,-15 -11,-18 30,-9 34,7 122,-4 196,-23 118,-31 123,-34 37,-26 -54,5 -125,17 -157,28 -38,13 -54,11 -44,-6 20,-33 -352,-108 -401,-81 -60,32 -342,124 -375,122 -17,-2 40,-28 127,-58 87,-31 162,-68 167,-81 7,-23 -99,-57 -308,-99 -92,-18 -590,130 -554,165 20,21 544,92 795,109 74,5 185,4 246,-3 61,-6 147,-13 191,-13 56,-2 71,-10 50,-25 z m -2403,-58 c -221,-74 -287,-86 -492,-85 h -236 l 98,45 c 88,40 228,84 369,113 27,6 155,12 283,13 l 234,1 z m 1237,-301 c -138,-41 -144,-40 -394,28 -140,37 -255,78 -255,89 0,24 359,146 430,146 28,0 149,-38 271,-84 248,-94 250,-89 -52,-179 z m 2043,153 c 83,-27 -7,-62 -163,-63 -111,0 -169,16 -279,77 -76,43 -144,72 -151,65 -8,-7 31,-37 86,-65 127,-66 149,-102 63,-102 -38,0 -131,-13 -208,-29 -127,-27 -145,-25 -210,22 -39,28 -116,71 -170,95 -115,52 -106,55 209,86 296,28 550,17 677,-32 54,-20 120,-44 146,-54 z m -4107,62 c -8,-14 -34,-24 -56,-23 -34,1 -33,6 8,23 65,29 66,29 48,0 z m 3269,-211 -85,-22 c -233,-59 -371,-103 -535,-171 l -180,-74 -164,65 c -264,103 -279,111 -264,136 8,14 89,48 180,78 l 166,54 194,-91 c 239,-111 277,-99 51,17 l -165,85 194,44 c 106,25 204,48 217,53 14,5 29,9 34,10 4,1 87,-40 183,-91 z m -2789,149 c 0,-7 -56,-41 -125,-77 -69,-36 -121,-70 -115,-76 6,-6 88,30 181,80 l 170,91 234,-17 c 128,-9 272,-25 319,-36 l 86,-20 -86,-39 c -47,-21 -137,-63 -201,-92 -107,-50 -131,-52 -344,-26 -126,15 -393,26 -592,25 -200,-2 -363,2 -363,8 0,5 58,41 129,78 71,38 140,78 152,91 24,23 555,32 555,10 z m -845,-142 c -101,-64 -403,-122 -372,-70 8,13 30,23 48,23 19,0 38,13 42,28 12,34 327,142 414,142 56,0 57,-3 15,-29 -25,-15 -91,-57 -147,-94 z m 5479,22 c -48,64 -41,87 15,51 27,-17 49,-46 49,-63 0,-44 -25,-39 -64,12 z m -3699,30 c 61,-15 187,-50 281,-79 l 169,-52 -71,-38 c -40,-21 -124,-57 -186,-82 -113,-42 -122,-41 -341,17 -125,33 -261,60 -302,60 -103,0 -67,31 142,123 201,88 169,83 308,51 z m 8268,-700 c 253,-525 558,-1353 724,-1968 60,-220 119,-423 131,-451 53,-116 196,-739 246,-1064.9995 59,-384 127,-1103 152,-1599 27,-545 2,-1466 -50,-1797 -13,-82 -41,-268 -63,-413 -67,-445 -229,-1141 -282,-1216 -10,-13 -49,-115 -87,-225 -80,-232 -274,-698 -397,-953 -100,-209 -196,-360 -483,-762 -118,-165 -215,-311 -215,-324 0,-29 -216,-266 -516,-567 -330,-329 -528,-502 -628,-550 -47,-24 -86,-53 -86,-65 0,-42 -207,-146 -393,-199 -101,-28 -331,-79 -509,-114.00001 -179,-34 -367,-80 -418,-100 -128,-53 -204,-173 -204,-322 0,-64 -10,-117 -22,-117 -53,0 -136,101 -165,200 -27,93 -25,127 16,263 27,86.00001 79,196.00001 117,245.00001 37,48 96,143 129,210 33,67 67,127 74,134 8,8 56,102 106,211 145,315 198,602 197,1093 -1,442 -13,506 -153,798 -58,123 -226,305 -282,305 -12,0 -63,31 -112,70 -49,39 -150,98 -225,131 -123,56 -168,61 -517,61 -209,1 -508,-9 -664,-20 -274,-22 -285,-20 -367,37 -132,92 -291,307 -333,451 -41,145 -46,283 -14,435 12,56 46,225 76,376 30,151 66,289 79,306 13,17 110,50 218,74 183,40 257,84 141,84 -50,0 -51,8 -36,163 l 16,163 h -84 c -109,0 -600,-173 -805,-284 -223,-121 -425,-253 -612,-402 -209,-166 -367,-242 -502,-242 -96,0 -107,-5 -96,-49 7,-28 -5,-79 -27,-113 -33,-52 -33,-59 -3,-47 20,8 43,51 51,97 15,79 21,83 143,93 69,5 129,8 133,5 5,-3 0,-35 -9,-73 -25,-102 -145,-167 -293,-159 -225,13 -735,-34 -812,-73 -40,-20 -103,-65 -139,-100 -45,-43 -120,-72 -241,-96 -96,-18 -205,-55 -242,-80 -84,-58 -205,-112 -219,-97 -6,6 12,19 40,27 28,9 51,33 51,52 0,19 41,63 92,99 73,50 121,63 243,63 134,0 161,9 258,88 67,54 155,96 231,112 213,44 225,50 77,37 -160,-14 -212,-36 -330,-140 -73,-65 -98,-72 -264,-72 h -184 l -138,-128 c -138,-127 -140,-128 -265,-111 -115,15 -221,63 -139,63 18,0 93,48 167,106 124,98 148,106 375,134 174,21 262,45 316,84 66,48 177,78 409,111 41,6 -5,7 -103,4 -132,-6 -209,-25 -307,-75 -89,-47 -188,-73 -315,-84 -145,-13 -211,-33 -304,-92 -223,-141 -274,-162 -392,-162 -98,0 -136,14 -215,81 -66,56 -97,102 -97,146 -1,94 175,249 283,249 59,0 209,-160 209,-223 0,-30 16,-53 36,-53 50,0 6,116 -80,207 l -64,69 h 129 c 122,0 131,-4 163,-82 19,-44 35,-64 36,-42 1,20 -15,62 -36,91 -34,50 -32,57 51,106 48,29 83,44 78,34 -4,-11 25,-53 65,-94 71,-74 68,-43 -5,44 -46,54 -40,60 76,82 85,16 100,10 180,-76 47,-52 92,-88 99,-81 18,19 -65,143 -95,143 -14,0 -11,17 6,38 43,53 84,47 170,-27 42,-36 76,-54 76,-40 0,14 -33,53 -72,87 -69,59 -71,64 -30,103 85,76 274,35 274,-61 0,-27 12,-49 25,-49 31,0 31,8 -3,83 -15,35 -51,72 -79,86 -49,22 -46,25 39,54 117,40 179,18 219,-74 18,-41 41,-74 51,-74 28,0 22,61 -8,92 -19,19 -14,51 18,112 44,82 45,82 53,21 8,-70 92,-195 115,-172 8,8 -4,49 -27,89 -55,98 -30,197 64,246 85,45 120,49 81,10 -32,-33 -17,-85 46,-170 55,-72 60,-28 9,72 -33,64 -33,77 2,111 21,22 77,40 123,40 69,0 94,-16 136,-82 28,-44 45,-59 37,-31 -7,28 -28,100 -44,159 -31,106 -30,111 37,170 38,33 79,54 92,46 12,-8 23,-1 23,15 0,16 16,22 37,14 20,-7 37,-3 37,10 0,33 131,32 163,-2 19,-18 23,11 14,100 -6,70 -2,127 10,126 48,-1 111,-73 133,-153 20,-68 16,-90 -16,-115 -34,-25 -35,-37 -10,-68 56,-68 10,-195 -104,-293 -57,-49 -126,-100 -153,-113 -44,-23 -341,-96 -466,-115 -26,-3 -52,-22 -58,-40 -14,-44 122,-23 396,61 189,57 311,123 512,273 56,42 136,98 180,126 44,27 117,84 164,125 245,221 958,487 1304,488 91,0 140,20 246,94 119,85 147,94 292,94 l 159,1 15,-125 c 22,-184 36,-203 208,-277 198,-86 360,-79 565,27 133,68 176,112 400,402 136,176 220,713 144,917 -39,104 -38,106 3,50 24,-32 77,-97 117,-143 40,-46 98,-133 128,-192 285,-564 504,-1125 563,-1437 21,-110 47,-211 59,-226 39,-49 124,-625 151,-1031 19,-295 19,-470 -1,-642 -31,-268 -117,-732 -149,-807 -12,-28 -47,-124 -77,-213 -106,-313 -297,-791 -383,-957 -76,-147 -342,-466 -368,-440 -5,6 39,116 99,246 222,479 351,995 322,1289 -34,357 -177,690 -389,909 -193,201 -257,241 -490,304 -203,56 -634,74 -634,27 0,-15 85,-25 203,-25 216,0 518,-64 659,-138 402,-212 642,-723 605,-1291 -24,-383 -146,-768 -373,-1178 -159,-286 -167,-348 -35,-259 256,174 436,463 689,1104 163,416 206,554 268,856 140,702 131,1272 -40,2172 -120,636 -347,1238 -675,1788 -109,182 -117,206 -43,139 128,-117 385,-586 550,-1004 48,-122 97,-240 109,-262 42,-76 246,-962 297,-1288 71,-446 78,-1099 16,-1478 -53,-337 -247,-969 -324,-1066 -27,-34 -233,-486 -233,-512 0,-25 143,66 197,127 33,37 46,59 27,48 -80,-48 -65,58 49,342 307,769 353,997 351,1775 0,425 -10,564 -54,802 -30,158 -67,356 -82,438 -47,257 -194,819 -260,991 -96,253 -291,636 -422,835 -113,168 -251,325 -283,321 -37,-5 -87,30 -74,50 9,14 31,11 55,-7 23,-18 -2,16 -55,73 -69,75 -87,107 -62,116 19,6 98,29 175,51 117,34 159,63 265,182 71,82 146,201 175,281 97,262 88,822 -19,1167 -38,126 -48,149 -166,425.9995 l -63,150 135,-150 c 143,-157.9995 404,-525.9995 497,-698.9995 267,-500 548,-1156 548,-1280 0,-21 22,-86 49,-144 60,-132 181,-756 226,-1159 18,-169 32,-538 30,-840 -2,-500 -8,-578 -93,-1084 -88,-533 -98,-581 -138,-683 -10,-28 -47,-141 -81,-251 -69,-225 -286,-826 -376,-1044 -53,-128 -214,-412 -321,-566 -22,-31 -30,-57 -18,-57 12,0 89,116 173,257 559,950 894,2264 893,3503 0,634 -93,1361 -237,1860 -49,170 -94,330 -100,358 -30,127 -191,524 -246,607 -34,51 -126,226 -205,388 -210,432 -350,633 -728,1040.9995 -124,134 -221,248 -216,254 5,5 68,-47 140,-115 226,-218 340,-316 351,-304 6,7 -87,101 -207,211 l -218,199 102,15 c 115,18 287,103 341,167 92,112 164,446 182,856 17,377 -11,650 -104,1016 -32,125 -65,254 -73,289 -13,55 -3,50 79,-41 124,-135 254,-290 254,-304 0,-12 120,-189 240,-351 44,-61 143,-219 221,-352 77,-134 148,-249 157,-256 27,-19 410,-874 490,-1090 59,-159 235,-748.9995 258,-864.9995 9,-48 25,-98 35,-113 20,-27 97,-355 158,-676 103,-543 189,-1493 187,-2080 -2,-751 -182,-1980 -345,-2356 -12,-27 -74,-197 -136,-376 -193,-551 -550,-1309 -660,-1401 -18,-15 -84,-103 -149,-197 -64,-93 -121,-169 -126,-169 -7,0 21,65 62,145 136,269 367,920 453,1279 62,255 141,682 189,1021 16,110 39,222 50,250 47,113 75,934 45,1323 -16,210 -37,393 -47,406 -11,14 -26,104 -36,200 -9,96 -32,244 -51,327 l -35,150 12,-163 c 7,-90 30,-298 49,-464 87,-710 67,-1571 -50,-2237 -20,-114 -54,-305 -75,-426 -56,-314 -189,-784 -282,-996 -13,-27 -66,-163 -119,-301 -53,-138 -137,-335 -185,-438 -49,-103 -89,-201 -89,-220 0,-52 264,262 413,493 76,116 213,358 306,539 874,1698 1060,3796 549,6192 -90,422 -294,1088.9995 -411,1340.9995 -55,118 -127,281 -161,364 -34,83 -134,290 -223,461 -171,330 -171,376 0,120 140,-211 700,-1347 851,-1726.9995 272,-690 486,-1454 569,-2040 28,-194 51,-400 51,-456 0,-56 10,-109 24,-117 31,-20 34,-981 3,-1001 -13,-7 -30,-130 -39,-271 -41,-627 -241,-1494 -508,-2197 -81,-215 -153,-413 -160,-441 -29,-113 58,39 100,175 24,76 55,138 71,138 16,0 62,86 103,191 40,105 87,196 104,204 17,6 31,27 31,46 0,19 77,268 170,555 259,788 456,1634 508,2175 9,96 25,186 35,200 10,14 33,183 49,376 25,279 26,464 2,901 -16,302 -38,562 -49,576 -12,15 -34,167 -50,340 -45,476 -216,1415.9995 -354,1941.9995 -195,743 -286,1059 -350,1203 -18,41 -71,183 -117,313 -180,507 -238,659 -361,945 -71,163 -133,313 -140,334 -27,86 159,-270 366,-702 z m -1098,-4565.9995 c 36,-87 92,-215 123,-284 69,-151 158,-430 255,-801 40,-152 73,-259 74,-238 1,20 -32,167 -74,325 -42,159 -86,330 -98,381 -33,136 -225,634 -326,841 -85,176 -126,245 -397,670 -133,209 -368,488.9995 -411,488.9995 -13,0 32,-63 100,-139.9995 223,-248 604,-875 754,-1243 z m -3250,-2176 c 18,0 41,34 48,76 23,115 115,103 211,-30 87,-121 105,-71 20,57 -76,115 -187,130 -261,33 -60,-77 -67,-136 -18,-136 z m -1609,-480 c -96,-60 -252,-169 -349,-243 -97,-75 -212,-151 -257,-170 -45,-19 -82,-46 -82,-60 0,-13 5,-24 11,-24 45,0 157,66 285,168 308,244 815,538 1052,610 221,66 370,98 479,98 64,1 117,12 117,26 0,34 -152,28 -340,-14 -209,-47 -703,-258 -916,-391 z m 1350,211 c 159,-8 176,-13 148,-47 -16,-21 -37,-86 -44,-143 -13,-100 -18,-105 -106,-112 -151,-13 -105,-55 61,-57 132,-1 145,-6 92,-28 -430,-188 -700,-453 -772,-758 -10,-40 -4,-152 14,-251 29,-169 37,-184 179,-321 283,-275 490,-327 850,-210 102,33 248,73 326,90 152,32 190,76 65,76 h -76 l 178,194 c 97,107 213,240 256,295 115,146 294,699 345,1064 l 15,111 -58,-64 c -95,-104 -261,-142 -694,-159 -217,-8 -419,-20 -449,-27 -37,-7 -54,-1 -50,21 4,18 -22,35 -61,40 -58,6 -68,19 -68,88 0,44 17,104 36,133 20,29 29,59 21,68 -9,8 -99,13 -202,10 l -187,-5 z m 1420,-509 c -68,-305 -201,-625 -258,-625 -56,0 -356,51 -367,62 -11,12 69,268 91,293 8,10 98,2 200,-18 101,-20 195,-36 209,-36 55,2 -103,73 -164,74 -37,0 -73,12 -82,26 -8,14 -47,25 -87,25 -68,0 -70,5 -57,81 49,272 42,257 133,264 120,8 390,82 407,111 36,59 29,-14 -25,-257 z m -534,-57 -28,-142 h -154 -154 l 21,94 c 11,52 26,125 35,163 13,66 20,69 161,69 81,0 147,-10 147,-21 0,-11 -13,-85 -28,-163 z m -329,77 c -38,-188 -64,-219 -185,-219 -62,0 -125,-13 -141,-30 -39,-39 -71,43 -34,88 14,18 34,79 43,138 l 16,105 h 159 159 z m -374,-50 c -27,-210 -67,-244 -282,-244 -69,0 -71,3 -55,94 9,52 40,113 68,137 45,37 213,111 266,118 9,1 10,-46 3,-105 z m -378,-150 c -12,-45 -23,-84 -23,-88 0,-14 -182,-82 -203,-75 -20,7 210,244 238,244 6,0 1,-37 -12,-81 z m 609,-233 -56,-150 -145,-18 c -79,-10 -148,-15 -152,-10 -5,4 16,77 46,161 48,137 61,155 129,163 103,14 235,19 235,11 0,-5 -26,-75 -57,-157 z m 418,90 c -8,-41 -31,-114 -51,-163 l -37,-89 h -161 c -89,0 -161,7 -161,16 0,9 23,82 53,163 l 52,147 h 160 159 z m -737,-46 c -8,-37 -31,-109 -52,-159 -35,-85 -44,-91 -178,-105 -78,-8 -145,-12 -150,-8 -3,4 19,76 49,161 51,144 60,154 141,163 208,22 204,24 190,-52 z m -518,-307 c -34,0 -81,-7 -104,-16 -36,-15 -40,-5 -24,80 28,153 79,233 155,245 138,20 137,22 121,-56 -32,-162 -85,-253 -148,-253 z m 1140,45 c -1,-18 -23,-80 -48,-138 l -48,-107 h -174 c -158,0 -172,4 -152,44 12,24 42,86 65,138 l 43,94 h 157 c 109,0 157,-9 157,-31 z m -443,-127 -49,-114 -144,-8 -145,-9 35,98 c 51,149 74,166 220,166 73,0 132,-4 132,-9 0,-6 -22,-61 -49,-124 z m 886,57 c 0,-11 -47,-70 -104,-133 l -105,-113 -142,28 c -78,16 -141,37 -141,47 0,9 21,69 48,132 45,106 55,115 137,115 48,0 138,-13 198,-28 60,-15 109,-37 109,-48 z m -1426,-235 c -69,-10 -143,-24 -166,-33 -32,-13 -23,16 34,120 65,119 89,140 183,166 178,48 202,43 183,-34 -34,-138 -102,-201 -234,-219 z m -296,44 c 0,31 -11,68 -26,82 -35,36 18,78 112,89 41,5 78,7 83,4 5,-3 -23,-62 -61,-130 -71,-128 -108,-144 -108,-45 z m 687,-170 c -42,-73 -67,-90 -130,-90 -43,0 -102,-7 -132,-15 -71,-19 -72,20 -5,131 48,80 60,85 184,85 74,0 134,-5 134,-11 0,-6 -23,-51 -51,-100 z m 384,-19 -61,-91 -155,13 c -85,8 -159,18 -163,22 -6,5 20,49 56,98 64,85 73,88 225,88 87,0 159,-9 159,-19 0,-11 -28,-61 -61,-111 z m 283,-30 c -105,-99 -134,-114 -191,-100 -108,25 -114,47 -40,157 l 70,103 135,-16 c 75,-8 138,-18 142,-21 4,-4 -48,-58 -116,-123 z m -1137,-116 c -32,0 -173,154 -157,170 13,13 251,75 303,79 17,1 31,-7 31,-18 0,-35 -151,-231 -177,-231 z m 323,-84 -51,-89 -97,52 c -53,28 -96,60 -96,70 0,11 46,31 103,45 120,29 191,37 191,20 0,-6 -23,-50 -50,-98 z m 419,91 c 0,-11 -36,-62 -80,-115 -77,-92 -84,-95 -219,-87 l -139,8 62,106 62,106 h 157 c 86,0 157,-8 157,-18 z m 16,-145 -94,-40 68,91 c 41,54 81,84 102,76 20,-7 48,-14 63,-14 48,0 -38,-70 -139,-113 z m -1159,9537.9995 c 40,-26 107,-76 147,-111 l 74,-64 -225,-1 -226,-1 -119,112 -119,112 197,1 c 153,1 214,-10 271,-48 z m 295,-63 221,-109 -126,-2 c -112,-3 -140,9 -252,100 -202,163 -158,167 157,11 z m -573,-125 -203,-33 c -220,-34 -203,-38 -377,98 l -70,54 33,-54 c 18,-29 43,-54 55,-54 23,0 87,-76 89,-104 0,-9 -68,-40 -151,-69 l -152,-52 -124,81 c -68,45 -146,93 -171,107 -27,13 -48,36 -49,49 -2,37 303,118 384,102 40,-7 63,-3 55,11 -8,13 27,30 79,38 51,9 109,19 130,24 20,5 83,9 141,11 91,2 120,-11 218,-103 z m -4862,98 c -26,-21 -65,-36 -85,-35 -22,2 -6,18 34,37 96,44 111,44 51,-2 z m 345,-237 c -205,0 -210,1 -181,50 18,27 41,50 52,50 12,0 43,28 69,61 51,66 106,77 437,85 180,5 181,4 123,-42 -246,-191 -279,-204 -500,-204 z m 1113,210 130,-13 -174,-113 -173,-114 -292,18 -293,18 77,69 c 43,38 116,92 163,122 90,54 145,56 562,13 z m 1689,-162 74,-30 -63,-18 c -35,-10 -107,-44 -161,-76 l -98,-57 -208,82 c -114,45 -229,90 -254,99 -35,13 -11,33 111,96 175,89 232,88 415,-9 61,-31 144,-71 184,-87 z m -3111,-33 c -72,-39 -345,-80 -308,-46 78,71 251,201 283,213 49,19 221,22 221,5 0,-22 -129,-135 -196,-172 z m 1943,110 c 0,-14 25,-26 55,-26 31,0 87,-15 126,-32 l 71,-30 -177,-85 -177,-84 -176,32 c -98,18 -225,37 -284,44 l -107,11 179,119 c 158,106 188,118 254,98 42,-12 112,-22 156,-22 44,0 80,-11 80,-25 z m -2428,-201 c -24,0 -99,-17 -165,-37 -147,-46 -163,-38 -50,24 46,26 85,56 85,67 0,26 132,96 258,137 98,32 185,44 185,25 0,-26 -275,-216 -313,-216 z m 4201,151 c 32,0 233,-135 241,-161 3,-12 -57,-49 -133,-80 l -139,-58 -196,116 -196,116 130,67 c 156,80 201,87 242,38 16,-21 39,-38 51,-38 z m 2153,-75 c 59,-71 130,-108 95,-49 -10,15 20,8 65,-16 48,-25 69,-48 52,-55 -18,-5 -47,3 -66,18 -24,20 -39,21 -50,3 -8,-15 -89,-26 -179,-26 -143,0 -172,8 -238,69 -50,46 -59,49 -28,12 26,-32 42,-61 36,-67 -5,-6 -99,-18 -208,-28 l -198,-18 -103,126 c -57,69 -104,132 -104,141 0,25 598,17 737,-9 94,-19 143,-45 189,-101 z m -793,-148 c -24,-21 -261,-78 -326,-78 -41,0 -274,215 -274,253 0,23 207,67 336,70 92,3 110,-8 194,-111 50,-64 82,-124 70,-134 z m -2593,109 c 109,-35 198,-69 198,-75 0,-6 -158,-11 -351,-10 l -350,2 147,73 c 82,41 150,74 153,74 3,0 94,-29 203,-64 z m 2166,-198 -152,-42 -152,-42 -118,103 c -64,56 -114,106 -110,110 7,8 262,102 285,106 6,1 65,-52 129,-116 z m -1270,139 120,-72 -120,11 c -66,5 -181,17 -255,24 l -135,15 86,46 c 116,64 164,60 304,-24 z m -3043,-64 c -125,-113 -116,-110 -496,-153 l -148,-17 111,119 c 61,64 133,127 160,138 27,12 148,21 270,22 h 221 z m 718,62 c 25,-13 9,-37 -59,-91 -89,-69 -104,-72 -299,-64 -138,6 -205,0 -205,-18 0,-17 57,-29 142,-31 152,-2 160,3 -116,-75 -62,-16 -117,-37 -124,-45 -6,-8 -99,-44 -204,-81 l -193,-65 117,122 c 86,88 138,122 187,122 38,0 69,12 69,25 0,14 -19,25 -42,25 -30,0 -10,33 67,114 l 110,114 258,-17 c 142,-9 274,-25 292,-35 z m -1314,-107 c -140,-131 -201,-161 -343,-166 l -73,-3 128,131 c 113,115 144,133 258,147 72,8 139,17 150,19 12,2 -43,-56 -120,-128 z m 1834,56 c 0,-13 -42,-25 -94,-25 -90,0 -336,-37 -432,-67 -66,-19 -27,35 67,96 55,35 103,45 164,35 47,-7 133,-13 191,-13 57,0 104,-12 104,-26 z m 2743,-200 -106,37 c -59,20 -179,44 -267,54 -174,18 -176,42 -7,93 119,36 130,32 306,-120 z m -5203,175 c -20,-13 -48,-24 -61,-24 -14,0 -8,11 12,24 20,14 48,24 62,24 13,0 8,-10 -13,-24 z m -141,-312 c -104,-23 -101,5 14,138 81,93 119,115 265,151 93,23 180,44 194,45 12,2 -26,-48 -87,-111 -111,-117 -241,-191 -386,-223 z m 3174,211 c 7,-56 42,-162 76,-235 35,-73 65,-140 65,-149 0,-9 -111,-16 -244,-16 h -245 l -98,117 c -63,75 -103,151 -113,216 -9,55 -12,103 -9,107 9,8 384,53 490,58 57,3 66,-7 78,-98 z m 661,-13 c -8,-99 12,-230 61,-396 11,-39 3,-44 -56,-33 -39,8 -157,21 -263,30 l -193,17 -84,179 c -46,98 -84,209 -84,248 v 69 h 313 314 z m 506,75 c 51,-10 56,-26 56,-171 0,-87 10,-218 24,-290 13,-72 19,-141 13,-151 -7,-12 -93,0 -191,25 -98,26 -206,50 -240,54 -42,6 -60,22 -55,51 5,25 -8,69 -28,101 -48,78 -75,304 -43,364 23,43 47,48 217,39 105,-6 217,-15 247,-22 z m 2365,-53 c 41,-51 73,-95 70,-97 -4,-3 -95,-13 -204,-22 l -198,-17 -80,115 -80,113 h 208 209 z m 346,-119 c -229,19 -238,23 -302,135 l -44,76 h 181 c 166,0 187,-5 242,-69 150,-168 153,-162 -77,-142 z m -715,-52 -128,-28 c -71,-15 -158,-36 -195,-46 -39,-11 -68,-9 -68,4 0,13 -40,70 -88,129 -96,114 -95,115 88,152 214,42 231,37 314,-92 z m 1031,169 c 163,-120 315,-263 263,-247 -27,8 -104,25 -171,38 -68,13 -126,35 -131,49 -5,14 -41,67 -81,119 -39,51 -72,96 -72,101 0,34 114,-2 192,-60 z m -2561,-24 c 174,-40 175,-41 150,-105 -14,-36 -27,-184 -28,-329 l -4,-264 -111,31 c -341,96 -329,88 -360,237 -15,74 -29,217 -31,319 l -2,184 105,-17 c 57,-8 184,-34 281,-56 z m -5173,-301 c -91,-31 -170,-52 -175,-48 -23,24 278,269 357,292 51,14 119,42 153,62 34,20 66,37 70,37 5,1 -47,-64 -115,-143 -106,-123 -147,-152 -290,-200 z m 2918,280 c 0,-93 40,-161 156,-268 l 102,-94 h -271 c -148,0 -368,-17 -487,-39 -214,-37 -219,-37 -329,19 -121,62 -205,152 -205,221 0,34 47,55 209,97 114,29 222,53 240,53 17,0 51,-49 75,-109 24,-60 80,-141 123,-182 l 79,-72 -65,75 c -85,99 -120,170 -120,248 0,53 15,65 93,78 51,9 109,19 129,23 20,5 89,10 154,11 110,3 117,-1 117,-61 z m 3365,-218 c 8,-17 -192,47 -327,106 -27,13 -83,32 -124,45 -70,22 -67,25 87,62 88,21 165,39 172,40 6,1 51,-51 98,-115 48,-65 90,-127 94,-138 z m -423,-201 c -44,-116 -65,-220 -65,-323 0,-135 -5,-150 -42,-133 -24,10 -88,34 -142,54 -201,75 -252,123 -270,258 -9,68 -11,155 -4,194 73,387 63,360 134,341 36,-9 155,-41 263,-71 227,-62 224,-56 126,-320 z m -4445,258 c -100,-121 -109,-126 -231,-126 -69,0 -185,-18 -256,-39 -72,-21 -134,-36 -138,-31 -4,4 44,69 108,143 116,134 120,136 288,153 93,10 206,19 251,21 l 81,4 z m -498,29 c -23,-25 -41,-56 -42,-69 0,-55 -195,-183 -332,-219 -80,-21 -169,-47 -195,-57 -28,-10 27,59 120,154 144,147 190,179 295,203 189,43 202,42 154,-12 z m 6402,-265 c -7,-7 -103,-21 -213,-30 l -199,-17 -52,122 c -28,68 -52,134 -52,148 0,23 139,50 312,59 69,3 83,-9 147,-133 38,-75 64,-142 57,-149 z m -5446,180 c 16,-54 61,-106 134,-156 l 110,-75 -110,-34 c -269,-86 -498,-37 -578,121 l -35,68 154,55 c 83,30 175,64 201,76 82,37 100,29 124,-55 z m 5964,-180 59,-98 -60,17 c -33,9 -150,29 -261,45 l -200,27 -64,120 c -35,65 -64,128 -64,138 0,10 89,12 199,5 178,-13 206,-22 266,-85 36,-39 93,-115 125,-169 z m -7429,61 c -151,-173 -232,-222 -498,-303 -65,-20 -64,-15 44,125 166,214 222,260 377,307 238,71 244,62 77,-129 z m 6444,-110 26,-71 -109,64 c -60,37 -119,66 -133,66 -12,0 -86,30 -164,66 -160,74 -149,99 58,134 186,32 189,31 244,-81 28,-59 64,-138 78,-178 z m -324,72 c 4,-3 -32,-70 -79,-149 -92,-156 -154,-336 -181,-521 -20,-136 -2,-138 -275,33 l -136,85 13,225 c 8,157 31,271 71,373 58,144 60,145 141,130 45,-9 162,-50 261,-93 97,-42 181,-79 185,-83 z m 1474,133 c 62,-15 119,-51 142,-87 21,-32 53,-59 69,-59 18,0 97,-68 178,-152 l 147,-153 -95,40 c -52,22 -98,40 -102,40 -3,0 -24,44 -46,100 -22,54 -50,100 -64,100 -31,0 -31,-6 1,-90 24,-66 23,-66 -55,-51 -238,49 -257,61 -350,218 l -88,152 80,-15 c 44,-9 126,-28 183,-43 z m 640,2 c -10,42 -7,52 11,33 14,-14 21,-41 15,-59 -6,-19 -17,-8 -26,26 z m -8784,-330 c -67,-87 -140,-143 -263,-203 -191,-92 -215,-72 -84,70 47,51 86,105 86,120 0,48 -98,-62 -184,-206 -46,-77 -115,-157 -153,-177 -38,-20 -116,-68 -174,-108 -58,-39 -111,-67 -116,-62 -6,6 60,94 146,197 159,193 363,382 493,461 53,32 61,34 27,5 -26,-22 -40,-47 -30,-57 9,-10 52,17 96,59 75,72 305,180 387,181 22,1 2,-32 -50,-80 -48,-45 -130,-135 -181,-200 z m 1656,64 c 98,-39 133,-83 66,-83 -18,0 -86,-23 -151,-52 -93,-42 -143,-50 -243,-36 -255,34 -308,140 -119,237 64,33 145,75 178,92 90,49 109,44 141,-42 20,-54 57,-88 128,-116 z m -828,-83 c -58,-26 -105,-38 -105,-27 0,10 36,61 80,113 57,66 115,103 203,127 125,34 283,48 283,25 0,-12 -257,-145 -461,-238 z m 6278,-135 c -105,-115 -229,-422 -272,-672 l -16,-94 -143,113 c -79,62 -153,112 -164,112 -11,0 -35,23 -52,51 -59,96 63,566 196,757 l 50,71 213,-117 c 117,-64 221,-124 232,-134 10,-10 -9,-49 -44,-87 z m -6576,-5 c -22,-2 -96,-22 -164,-44 -148,-49 -168,-50 -143,-10 10,17 -18,0 -62,-37 -45,-39 -99,-70 -122,-70 -23,0 -88,-22 -146,-49 -57,-26 -105,-41 -105,-33 0,9 34,69 75,134 65,103 97,128 240,182 91,35 187,72 212,82 41,17 37,4 -21,-79 -65,-94 -63,-93 39,19 89,97 136,125 279,167 95,28 182,51 193,52 12,1 -36,-68 -107,-153 -70,-86 -145,-158 -168,-161 z m 7040,147 c 32,-66 71,-161 88,-213 30,-94 30,-94 169,-96 77,0 184,-9 238,-19 96,-17 99,-21 123,-148 l 25,-132 178,-86 c 171,-84 179,-91 179,-174 0,-49 -12,-117 -25,-153 -19,-52 -8,-97 59,-245 46,-100 95,-235 110,-299 51,-218 28,-643 -44,-810 -12,-27 -46,-123 -76,-213 -70,-208.9995 -174,-412.9995 -339,-663.9995 l -131,-201 123,138 c 68,76 131,157 138,181 13,38 48,44 226,44 h 212 l -15,-179 c -8,-98 -24,-188 -35,-198 -31,-30 -669,-40 -652,-11 30,57 -468,-457 -510,-526 -25,-42 -65,-171 -88,-288 -23,-118 -57,-243 -75,-280 -42,-83 -145,-160 -247,-182 -65,-14 -88,-6 -139,50 -40,43 -102,75 -181,90 -72,13 -143,47 -181,84 -58,60 -62,79 -65,357 -2,162 -16,362 -33,445 -16,82 -36,184 -43,225 -7,41 -24,82 -37,91 -14,8 -25,197 -26,438 -3,385.9995 3,443.9995 62,661.9995 35,131 73,261 83,288 11,33 9,41 -8,25 -13,-14 -44,-99 -67,-188 -24,-90 -61,-185 -83,-211 -25,-29 -28,-41 -8,-29 26,17 30,3 17,-64 -34,-169 -37,-174 -90,-146 -47,26 -47,28 7,107 l 54,80 -70,-63 c -178,-162 -307,-475.9995 -421,-1027.9995 -54,-257 -46,-362 30,-424 36,-28 86,-52 111,-52 61,0 60,-3 -44,-193 -88,-160 -90,-171 -107,-517 -18,-341 -58,-650 -99,-756 -11,-27 -26,-93 -33,-147 -22,-158 -155,-277 -273,-245 l -69,19 67,44 c 95,64 137,186 137,403 0,177 5,194 79,281 l 81,92 v 332 c 1,240 11,343 34,372 19,22 28,47 21,53 -6,7 -27,-6 -46,-29 -25,-31 -37,-140 -42,-394 l -9,-353 -83,-94 c -82,-92 -85,-103 -85,-297 0,-112 -11,-224 -25,-250 -71,-136 -378,-167 -472,-49 -26,32 -40,73 -33,91 7,19 2,34 -11,34 -14,0 -24,22 -24,50 0,28 11,50 24,50 14,0 25,16 25,35 0,49 63,68 171,50 122,-20 158,32 39,55 -48,9 -110,10 -136,3 -28,-7 -55,-3 -63,10 -8,12 -1,22 13,22 15,0 22,10 15,22 -20,33 92,127 183,154 64,19 96,15 142,-15 64,-43 106,-28 58,22 -17,17 -81,30 -141,30 -60,0 -109,4 -109,8 0,4 16,46 36,93 30,76 47,88 118,88 45,0 96,-14 112,-30 15,-16 36,-22 46,-12 31,32 -78,93 -153,85 l -75,-7 25,121 25,122 130,-8 c 127,-8 129,-8 74,35 -63,49 -107,56 -129,19 -8,-13 -28,-24 -44,-23 -40,1 154,173 196,173 18,0 33,13 33,28 0,18 -26,22 -68,12 -95,-23 -228,-179 -339,-401 -104,-210 -139,-250 -240,-275 -39,-9 -144,-94 -240,-193 -182,-189 -174,-186 -358,-110 -95,40 -113,67 -115,177 -4,121 77,202 209,207 57,2 127,-13 160,-35 32,-21 78,-35 101,-29 55,14 -72,71 -205,91 l -98,15 115,69 c 138,82 189,86 276,16 36,-30 73,-47 80,-39 15,14 -136,117 -173,117 -12,0 6,22 40,50 75,60 120,63 216,12 62,-32 69,-32 58,-1 -8,20 -46,43 -86,52 -84,19 -90,57 -21,133 58,63 138,69 213,17 29,-21 59,-28 66,-16 19,31 -59,96 -138,117 -67,17 -95,61 -39,61 15,0 20,7 11,17 -9,9 2,37 24,62 45,51 166,39 237,-23 39,-35 43,-34 43,13 0,54 -44,81 -129,81 -49,0 -49,2 -7,51 30,33 76,50 141,50 115,0 131,32 93,176 -22,86 -22,111 5,128 24,16 25,21 1,22 -17,0 -30,32 -30,73 0,70 4,73 86,59 53,-8 86,-3 86,13 0,15 -36,31 -80,35 -67,6 -81,19 -88,78 -7,68 -5,70 86,57 l 94,-14 -80,25 c -72,24 -79,35 -79,128 v 101 l 98,-16 c 80,-14 98,-10 98,23 0,22 -21,39 -47,39 -84,0 -125,30 -125,88 0,49 12,57 78,54 42,-2 80,8 85,22 6,14 -35,26 -91,28 -121,3 -167,44 -195,174 -25,110 -2,152 106,197.9995 100,43 178,20 263,-78.9995 80,-92 94,-196 50,-360 -68,-246 -136,-820 -75,-626 11,35 21,104 22,155 3,97 99,519 210,917.9995 101,361 196,611 296,769 l 91,145 35,-69 c 36,-72 32,-93 -40,-176 -110,-127 -514,-1211.9995 -483,-1297.9995 6,-16 30,38 54,120 24,82 51,161 61,175 10,14 49,121 87,237 125,386.9995 356,852.9995 423,852.9995 52,0 36,41 -30,71 -54,25 -61,44 -61,164 0,78 13,146 30,161 17,14 96,45 175,68 161,48 268,37 397,-41 82,-49 84,-55 70,-168 -25,-192 -55,-222 -211,-208 -101,8 -107,-400 -12,-870.9995 97,-481 87,-715 -35,-877 -66,-87 -57,-103 56,-103 56,0 140,-22 191,-52 l 89,-51 185,88 c 143,68 185,79 191,51 14,-58 -147,-311 -196,-311 -12,0 -46,39 -73,88 -29,49 -58,83 -65,76 -27,-29 122,-190 176,-190 58,0 193,90 393,264 184,157 392,493 499,799 19,54 43,111 54,126 48,64 127,423.9995 150,677.9995 42,489 -16,878 -176,1154 -106,184 -406,520 -443,498 -11,-8 29,-59 90,-114 l 112,-100 -62,-123 c -34,-68 -70,-124 -79,-123 -10,1 -62,39 -116,86 l -98,85 42,90 c 23,49 32,89 18,89 -73,0 -183,-346 -219,-689 -14,-138 -31,-561 -38,-940 -13,-774.9995 -49,-1027.9995 -180,-1291.9995 -97,-198 -155,-251 -224,-209 -42,28 -45,39 -18,71 18,22 63,118 100,214 54,141 70,230 79,451 12,263 0,402.9995 -92,1015.9995 -51,343 13,911 138,1213 22,54 95,181 161,281 121,183 143,226 97,198 -14,-9 -140,62 -281,158 -186,127 -249,182 -228,202 15,16 115,27 230,27 h 204 z m -938,-1568 c -57,-64 -101,-184 -57,-157 14,10 27,32 27,49 0,62 95,122 197,125 113,3 154,-38 131,-132 -12,-44 -7,-57 18,-48 53,18 56,130 5,176 -50,46 -143,69 -219,53 -29,-6 -75,-36 -102,-66 z m 428,-2549.9995 c 56,3 102,-18 169,-78 87,-77 90,-87 76,-195 -16,-127 -64,-176 -167,-176 -38,0 -69,-12 -69,-25 0,-51 162,-27 217,32 66,71 74,276 15,362 -74,108 -245,163 -330,106 -41,-27 -24,-32 89,-26 z m 1058,3933.9995 c 16,-103 14,-105 -43,-89 -33,9 -127,23 -210,32 l -150,16 -55,134 c -30,74 -64,135 -74,135 -11,0 -27,18 -35,40 -14,37 2,39 139,25 85,-10 196,-25 247,-32 106,-17 153,-84 181,-261 z m -6901,77 78,-33 -133,-71 c -96,-50 -168,-69 -267,-70 -138,-1 -246,46 -246,107 1,32 310,216 366,217 18,0 53,-26 78,-59 26,-33 81,-74 124,-91 z m 7218,29 c 9,-23 38,-102 63,-176 l 46,-134 -55,16 c -30,9 -113,29 -184,46 -87,20 -129,42 -130,68 0,21 -21,98 -45,170 -27,78 -35,132 -19,132 14,0 88,-19 166,-41 79,-22 149,-59 158,-81 z m -923,-248 c 0,-19 -43,-98 -95,-177 -100,-150 -155,-296 -222,-584 l -40,-175 -143,148 -144,148 36,198 c 47,249 122,452 215,582 83,118 97,117 276,-19 65,-48 117,-103 117,-121 z m 1402,-132 c 0,-41 -5,-75 -11,-75 -6,0 -77,30 -158,65 -141,62 -151,73 -190,195 -23,70 -47,143 -53,160 -15,41 -6,40 121,-15 142,-63 291,-231 291,-330 z m -9389,-72 -176,-95 45,90 c 25,50 65,108 90,131 61,55 339,220 350,208 5,-5 -22,-61 -61,-124 -55,-89 -110,-136 -248,-210 z m 976,336 c 0,-7 -34,-30 -77,-53 -42,-22 -146,-96 -231,-163 -84,-68 -161,-123 -171,-123 -10,0 11,39 46,86 36,47 65,96 65,107 0,12 52,38 116,57 64,19 144,50 179,68 69,36 73,38 73,21 z m 328,-173 -143,-70 c -165,-81 -302,-90 -380,-26 l -53,44 166,117 c 158,111 168,114 200,69 17,-27 72,-67 121,-90 z m -1058,-317 c -64,-24 -138,-52 -163,-63 -40,-16 -37,-3 18,109 35,69 76,136 93,148 32,20 290,126 321,130 10,2 -20,-61 -66,-139 -71,-119 -102,-148 -203,-185 z m 8766,242 c 6,-6 17,-75 26,-153 l 14,-143 -176,91 c -116,59 -176,105 -176,133 -1,24 -8,69 -15,100 -18,67 -7,68 178,19 77,-20 145,-41 149,-47 z m 633,-279 -98,74 c -53,39 -98,73 -99,75 -9,6 -34,139 -26,139 5,0 58,-65 116,-143 z m -8760,163 c 70,-16 73,-21 30,-38 -27,-12 -94,-51 -148,-89 -98,-68 -125,-70 -302,-34 -78,17 -64,42 90,159 127,96 134,98 191,60 33,-22 95,-48 139,-58 z m -1086,-13 c -44,-91 -358,-332 -382,-292 -30,51 111,220 248,299 79,44 151,81 160,81 9,0 -3,-39 -26,-88 z m 9614,-37 v -165 -165 l -153,85 -154,86 -8,142 c -3,78 4,142 16,142 13,0 85,-28 161,-62 z m -9577,-269 c -80,-46 -149,-80 -153,-75 -4,4 17,61 47,127 44,97 81,135 201,205 81,47 157,86 168,86 11,1 -12,-58 -49,-130 -55,-104 -98,-147 -214,-213 z m 9840,68 c 53,0 97,-128 83,-247 l -14,-109 -49,56 c -27,30 -96,78 -154,106 l -104,49 v 162 c 0,145 4,158 43,137 24,-13 70,-53 103,-88 32,-37 73,-66 92,-66 z m -9128,0 c 23,0 -14,-43 -86,-101 -70,-56 -136,-95 -149,-87 -11,8 -29,2 -37,-11 -21,-36 -111,-31 -181,8 -58,33 -57,33 83,161 l 142,128 93,-49 c 52,-27 112,-49 135,-49 z m -1299,-209 c -110.99995,-110 -100.99995,-87 55,127 121,165 150,183 84,53 -23,-45 -86,-127 -139,-180 z m 9636,-346 c 13,-72 4,-116 -39,-195 -56,-101 -96,-131 -97,-70 0,17 -28,91 -61,166 l -63,134 76,125 c 42,69 71,130 65,136 -6,6 -41,-41 -78,-105 -37,-64 -75,-108 -86,-95 -9,11 -49,80 -87,153 l -69,131 57,125 c 32,69 65,126 72,126 8,0 51,-55 96,-122 90,-136 189,-369 214,-509 z m -9389,282 c -177,-125 -245,-183 -230,-198 8,-8 44,15 82,50 56,54 227,155 227,136 0,-4 -27,-85 -60,-180 -54,-159 -72,-182 -211,-284 l -151.99995,-110 18,122 c 9.99995,68 28.99995,152 42.99995,186 14,35 27,68 29,75 62,226 103,305 183,360 147,98 259,164 266,156 5,-4 -14,-59 -41,-123 -32,-77 -83,-140 -154,-190 z m 555,148 c -93,-96 -171,-175 -175,-175 -4,0 4,23 20,52 14,29 21,58 14,65 -6,6 -25,-14 -42,-46 -17,-32 -45,-73 -64,-91 -18,-19 -32,-50 -32,-70 0,-40 -190,-177 -213,-153 -8,8 12,86 46,172 55,142 75,166 192,231 99,56 127,63 115,32 -25,-65 30,-49 59,17 26,58 147,137 215,140 18,1 -43,-77 -135,-174 z m 8277,-168 c -92,-136 -112,-147 -171,-93 -41,37 -46,64 -32,159 9,63 26,141 38,173 20,58 20,58 129,-37 l 107,-96 z m 926,224 122,-69 8,-169 c 4,-93 1,-169 -8,-169 -7,0 -74,46 -148,103 -133,103 -135,105 -135,238 0,75 9,135 19,135 10,0 74,-32 142,-69 z m -9114,-319 c -106,-109 -149,-138 -211,-138 -138,0 -143,49 -21,209 l 110,142 72,-37 c 40,-22 98,-39 129,-39 48,0 37,-17 -79,-137 z m 9582,11 c 18,-31 -14,-426 -35,-422 -9,2 -73,67 -145,146 l -129,144 16,155 c 9,84 25,154 36,154 10,0 70,-34 131,-77 61,-42 118,-87 126,-100 z m 239,-33 c 23,-25 43,-56 43,-69 0,-14 16,-42 37,-63 20,-20 36,-50 36,-65 0,-14 -59,29 -132,96 -117,108 -133,135 -135,223 l -1,101 54,-91 c 30,-49 74,-109 98,-132 z m -10900.99995,-224 c -55,-51 -100,-99 -100,-107 0,-8 -33,-48 -74,-89 -91,-93 -77,-45 56,185 53,92 107,163 119,155 12,-8 22,-4 22,9 0,13 42,76 91.99995,139 111,140 134,100 46,-77 -33,-67 -105.99995,-164 -160.99995,-215 z m 9516.99995,108 c 0,-17 -41,-88 -90,-157 l -92,-126 -71,149 -72,149 79,130 c 43,72 87,130 96,130 11,0 49,-54 85,-122 35,-67 65,-136 65,-153 z m 754,-223 -33,-110 -40,59 c -23,33 -41,83 -41,112 0,29 -21,97 -46,151 -26,54 -55,124 -64,155 -14,47 -9,53 28,39 25,-9 86,-50 137,-92 102,-83 112,-133 59,-314 z m -1168,332 c 42,-39 48,-38 97,7 l 52,47 -50,-97 -51,-98 74,-150 75,-150 -107,-111 c -68,-71 -122,-106 -149,-99 -30,7 -43,-3 -43,-35 0,-90 46,-74 191,62 l 145,137 57,-166 57,-165 -119,-115 -119,-115 -59,131 c -32,72 -70,131 -84,131 -14,0 -20,-8 -16,-19 5,-10 30,-74 55,-141 l 49,-122 -68,-59 c -37,-33 -78,-59 -91,-59 -30,0 -31,761 -1,820 12,24 34,72 49,107 14,34 46,91 69,125 l 42,62 -62,-56 c -34,-31 -69,-56 -79,-56 -9,0 -16,51 -16,112 0,123 27,141 102,72 z m 1851,-467 c -18,-108 -40,-207 -48,-220 -8,-13 -54,30 -103,95 -49,66 -97,125 -108,133 -17,12 14,295 44,399 7,25 47,-2 130,-88 l 119,-124 z m -10173,182 c -111,-127 -141,-148 -193,-135 -33,8 -65,19 -71,24 -6,6 31,74 82,151 76,117 101,139 145,127 30,-9 79,-15 111,-15 51,-1 44,-15 -74,-152 z m -334,-100 c -34,0 25,161 74,202 91,77 94,56 14,-76 -42,-69 -82,-126 -88,-126 z m 9178,-204 c -91,-134 -153,-187 -167,-143 -97,307 -94,285 -40,384 28,50 69,120 92,155 l 40,64 34,-67 c 19,-37 51,-119 69,-184 34,-112 32,-120 -28,-209 z m 1000,162 -42,-180 c -23,-98 -50,-177 -59,-173 -10,4 -68,70 -129,147 l -113,141 27,180 c 15,106 37,176 52,171 15,-4 80,-71 145,-147 z m -10753.99995,-249 c -173,-184 -184,-183 -135,20 32,129 336,535 356,474 6,-19 -4,-97 -21,-175 -27,-120 -57,-166 -200,-319 z m 329.99995,-19 -153.99995,-148 3,97 c 4,167 31,219 182.99995,343 156,129 172,124 140,-44 -14,-79 -51,-133 -172,-248 z m 10895,304 c 70,-135 192,-418 192,-446 0,-25 -50,-41 -199,-62 -107,-16 -114,-13 -142,54 -23,59 -18,110 21,272 27,111 49,221 49,245 1,67 19,52 79,-63 z m -1227,-106 c 15,-157 -23,-344 -59,-287 -12,20 -22,61 -22,91 0,30 -11,62 -25,70 -13,9 -25,37 -25,63 0,49 76,200 102,200 8,1 21,-61 29,-137 z m -9470,22 c -7,6 -5,24 4,39 24,40 38,32 22,-12 -8,-21 -20,-34 -26,-27 z m 216,-9 -74,-111 c -73,-108 -117,-140 -190,-140 -27,0 -16,37 45,150 44,83 83,150 86,150 2,0 34,-11 69,-25 z m 9637,-93 c 16,41 21,40 68,-13 86,-98 181,-255 181,-302 0,-58 -74,-245 -97,-245 -11,0 -53,88 -95,195 -43,107 -77,178 -78,158 0,-19 35,-123 77,-230 74,-184 76,-199 43,-288 -62,-165.9995 -87,-130 -116,171 -15,156 -29,294 -31,308 -2,13 4,64 12,113 12,65 10,75 -8,37 -18,-38 -24,-15 -25,96 -1,90 7,139 23,130 14,-9 25,-52 26,-96 1,-58 6,-67 20,-34 z m 561,-354 c -24,-92 -52,-177 -64,-189 -11,-11 -56,42 -99,118 l -78,138 40,146 c 64,234 57,226 122,144 33,-40 73,-100 91,-132 26,-48 23,-87 -12,-225 z m -1135,-104 c -50,-70 -99,-127 -108,-127 -9,0 -31,74 -48,164 l -30,164 105,141 104,141 34,-178 33,-179 z m -9677.99995,342 c -14,-15 -27,-73 -27,-130 0,-94 -70,-213 -223,-375 -14,-15 -22,36 -22,130 0,151 3,157 141,324 107,129 143,159 150,124 4,-25 -4,-58 -19,-73 z m 8581.99995,-54 c 0,-63 -117,-144 -208,-144 -50,0 -94,4 -100,10 -5,6 -3,52 5,103 13,80 24,93 82,93 36,0 86,22 110,49 44,50 45,50 78,-15 19,-36 33,-79 33,-96 z m -8909.99995,-254 6,-315 -95,-161.9995 c -84,-144 -96,-156 -110,-105 -26,100 -17,257.9995 17,308.9995 66,98 168,288 155,288 -6,0 -52,-68 -103,-152 -49,-83 -95,-146 -102,-140 -31,32 180,593 223,593 1,0 6,-143 9,-316 z m 375,-359 c 0,-15 -8,-25 -18,-23 -43,9 -111,-41 -166,-123.9995 -57,-86 -59,-87 -71,-28 -43,213.9995 -41,228.9995 35,349.9995 128,204 146,205 146,14 0,-94 11,-166 25,-166 14,0 25,85 25,204 v 204 l 122.99995,126 c 120,122 177,145 126,51 -37,-68 -224.99995,-577 -224.99995,-608 z m 368.99995,558 c 0,-31 -126,-259 -144,-259 -28,0 -114,-198 -211.99995,-488.9995 -46,-138 -85,-233 -85,-212 -3,81 103,438.9995 208.99995,710.9995 104,265 116,282 172,271 33,-6 60,-16 60,-22 z m 10504,-96 c -14,-9 -26,1 -26,23 0,44 15,51 36,16 8,-13 4,-30 -10,-39 z m -2274,-307 c 33,-165 -42,-257 -211,-257 -73,0 -80,10 -110,165 -15,77 -14,79 100,94 112,16 182,51 182,93 0,11 -30,5 -68,-14 -37,-18 -107,-41 -156,-50 -85,-16 -89,-13 -105,64 -30,153 -22,174 64,175 44,1 113,16 155,34 90,41 101,31 118,-110 8,-62 21,-149 31,-194 z m 893,6 -103,-94 c -57,-52 -111,-94 -121,-94 -10,0 -36,63 -58,140 l -40,141 118,122 c 65,67 122,117 127,112 5,-5 25,-81 44,-168 z m 303,263 c 0,48 6,68 12,44 6,-24 6,-63 0,-88 -6,-24 -12,-5 -12,44 z m 847,-321 c -22,-113 -117,-311.9995 -138,-289.9995 -11,12 -44,87.9995 -73,168.9995 l -53,148 53,159 c 28,89 55,160 60,160 5,0 44,-63 87,-140 55,-98 74,-159 64,-206 z m -1068,-213.9995 c -13,-9 -30,47.9995 -38,127.9995 -13,127 -8,151 42,206 33,35 79,96 104,137 l 46,74 18,-132 c 18,-122 14,-140 -65,-265 -46,-74 -94,-140.9995 -107,-147.9995 z m 1421,294.9995 c 0,-44 -39,-188 -91,-336.9995 -8,-23 -44,30 -93,137.9995 -85,187 -85,178 2,414 18,50 181,-142 182,-215 z m -811,-630.9995 -166,12 c -92,7 -170,16 -173,19 -4,3 36,100 88,216 53,115.9995 115,288.9995 140,385.9995 24,96 50,187 58,200 25,41 48,-205 51,-528.9995 z m -993,379.9995 c -2,0 -55,-32 -119,-67.9995 -63,-37 -127,-68 -141,-68 -29,0 -32,175.9995 -6,269.9995 16,56 174,159 204,133 9,-8 28,-70 42,-139 14,-69 23,-126 20,-128 z m 1940,65 60,-120.9995 -79,-216 c -43,-118 -85,-214 -92,-214 -7,0 -35,71 -63,157 -43,135 -46,167 -20,243 18,49 44,135.9995 58,194.9995 15,60 38,101 51,93 13,-8 51,-70 85,-137 z m -1811,-350.9995 c -9,0 -24,63 -34,141 l -17,141.9995 107,94 106,93 18,-140 c 18,-137.9995 17,-141.9995 -72,-234.9995 -50,-52 -98,-95 -108,-95 z m 1159,83 c 0,-39 -219,-429 -251,-450 -14,-8 -16,103 -7,270 11,209 28,317 67,403.9995 28,65 59,119 69,119 10,0 42,-70 70,-155 29,-84.9995 52,-170.9995 52,-187.9995 z m 320,145 51,-135 -90,-191 -89,-190 -59,162 c -66,181 -65,201 28,414.9995 71,164 76,162 159,-60.9995 z m -1099,17 c -21,-72 -59,-182 -84,-244 l -45,-114 -1,146 c -1,128 8,158 78,243.9995 44,54 82,98 85,98 3,1 -12,-58 -33,-129.9995 z m -2946,7.9995 c -36,-39.9995 -55,-43.9995 -115,-22.9995 -40,15 -100,19 -133,10 -76,-19 -79,18.9995 -6,72.9995 40,30 85,37 164,27 60,-8 114,-20 121,-27 6,-7 -7,-34 -31,-60 z m -7153.99995,-368.9995 -104,-166 -27,122 c -22,98 -20,137 9,198 48,100 162,286.9995 171,277.9995 4,-3 17,-64 30,-135.9995 24,-127 23,-132 -79,-296 z m 376,407.9995 c 0,-5 -17,-42.9995 -37,-83.9995 -20,-42 -50,-143 -64,-224 -38,-209 -50,-235 -72,-159 -43,142 -26,249 56,363 68,93.9995 117,137.9995 117,103.9995 z M 8695.756,9749.0085 c -32,0 -83,20 -113,46 l -55,44 54,108 54,107.9995 60,-56.9995 c 42,-41 59,-84 59,-153 0,-85 -7,-96 -59,-96 z m -8410.99995,-163 c -75,-194 -90,-189 -89,27 0,152 13,225 54,312 l 53,111.9995 15,-162.9995 c 12,-128 5,-189 -33,-288 z m 9219.99995,138 c -49,-42 -47,-84 3,-65 35,13 38,-2 22,-129 -9,-79 -22,-153 -27,-162 -6,-9 -41,0 -78,19 -37,20 -81,36 -98,36 -20,0 -31,38 -31,109 0,106 2,108 74,97 42,-6 74,0 74,15 0,15 -31,30 -68,34 -58,7 -72,25 -95,121 -25,104 -23,115 25,136 91,41 199,82.9995 217,86.9995 11,1 19,-57.9995 19,-131.9995 0,-89 -12,-145 -37,-166 z m 637,-67 c -26,-9 -77,-39 -115,-65 -38,-27 -73,-45 -77,-40 -4,5 -15,78 -24,162 -16,153 -16,154 58,184 40,18 86,48 102,68 46,55.9995 78,2 91,-153 9,-119 4,-141 -35,-156 z m 2022,-485 -82,-212 -26,100 c -15,55 -39,171 -54,258 -26,150 -23,168 51,370 43,116 82,211 87,211 4,0 30,-77 57,-171 68,-230 63,-305 -33,-556 z m -1791,311 -105,-96 -12,148 c -13,147 -12,150 85,243 55,53 107,95 117,95 11,1 19,-65 19,-146 0,-142 -4,-151 -104,-244 z m -1672,216 c 53,0 56,-10 49,-119 l -8,-119 -112,-7 c -81,-6 -128,4 -169,39 -57,46 -57,46 -15,177 23,71 50,129 59,129 9,-1 44,-23 78,-50 34,-27 87,-50 118,-50 z m 1138,-200 c -45,-24 -49,-21 -39,43 6,38 18,113 25,166 19,120 26,112 46,-52 15,-114 11,-134 -32,-157 z m 2050,103 c 41,-134 41,-136 -20,-292 -82,-210 -157,-334 -171,-286 -40,123 -68,309 -56,359 31,124 166,399 185,377 11,-13 39,-84 62,-158 z m -326,-259 -107,-177 c -58,-97 -116,-177 -127,-179 -12,-1 -49,69 -83,155 -34,87 -67,153 -72,147 -6,-6 17,-81 51,-168 35,-87 64,-168 64,-181 0,-34 -224,-350 -238,-336 -6,6 8,157 31,334 35,274 51,336 108,410 36,48 104,158 149,244 46,87 91,157 100,157 9,0 40,-92 70,-203 z m -11426.99995,-209 -35,-100 -3.000003,174 c 0,96 13.000003,248 30.000003,339 l 30,164 7,-238 c 5,-162 -4,-270 -29,-339 z m 594,268 -81,-116 -80,-116 -39,57 c -79,114 -75,204 13,342 46,69 88,120 94,115 6,-7 30,-73 52,-147 z m -378,-161 c -37,-93 -71,-164 -76,-158 -7,5 -21,54 -33,106 -17,75 -10,132 30,260 72,224 75,227 112,86 30,-117 28,-135 -33,-294 z m 9829.99995,233 c 0,-148 -1,-149 -109,-225 -60,-42 -113,-77 -117,-77 -4,0 -4,77 0,170 l 9,169 102,53 c 57,29 105,54 108,56 4,2 7,-63 7,-146 z m -1520,-99 c -19,-1 -25,-14 -17,-28 26,-43 -38,-100 -112,-100 -105,0 -179,74 -158,160 13,51 27,65 57,52 23,-9 90,-31 151,-49 60,-18 96,-33 79,-35 z m 1225,-255 -153,-73 c -160,-77 -199,-79 -139,-6 19,24 68,117 108,206 75,168 99,200 153,201 22,0 31,-49 31,-164 z m 436,178 c -10,0 -18,-16 -18,-35 0,-19 -17,-42 -37,-50 -71,-27 -40,92 43,162 44,37 83,66 85,63 4,-4 -7,-36 -24,-73 -17,-37 -38,-67 -49,-67 z m 1999,62 c 0,-20 -17,-37 -37,-37 -21,0 -37,12 -37,26 0,15 11,20 25,11 13,-8 24,-3 24,12 0,14 6,26 13,26 6,0 12,-17 12,-38 z m -260,-444 -109,-210 c -60,-116 -117,-210 -124,-210 -9,0 -35,91 -58,203 l -44,204 106,234 c 58,130 113,221 121,204 8,-17 36,-119 61,-228 z m -11606.99995,34 -83,-166 -39,93 c -50,120 -50,115 26,311 l 66,167 56,-119 57,-119 z m 8845.99995,84 c -18,7 -54,13 -80,13 -43,0 -43,8 14,117 34,64 61,132 61,150 0,41 137,46 162,7 25,-42 -117,-302 -157,-287 z m -8681.99995,10 c -21,59 -14,88 40,175 36,57 66,104 67,104 1,0 4,-71 6,-157 5,-226 -55,-292 -113,-122 z m 11691.99995,-197 c -19,-334 -162,-718 -162,-437 0,69 -11,217 -25,331 -24,197 -23,212 41,350 36,79 78,160 92,179 44,56 70,-150 54,-423 z m -3739,367 c 34,14 37,8 17,-31 -13,-26 -32,-90 -41,-142 -15,-86 -23,-94 -98,-94 -145,0 -177,72 -122,282 15,53 7,53 115,6 48,-20 106,-29 129,-21 z m 1593,-35 c -18,-113 -49,-153 -238,-301 l -144,-114 77,148 c 41,81 76,161 76,176 0,21 209,182 238,184 3,0 -1,-42 -9,-93 z m 1492,-248 c 1,-69 -176,-387 -208,-376 -14,4 -28,35 -32,68 -5,33 -25,115 -46,180 -34,110 -34,126 2,182 22,34 48,62 58,62 10,0 46,51 80,114 l 60,113 43,-144 c 24,-80 43,-170 43,-199 z m -2850,74 c 14,-39 34,-249 44,-465 16,-380 18,-397 79,-459 40,-40 102,-70 166,-78 56,-8 109,-25 116,-37 8,-12 -3,-76 -23,-140 -57,-178 -95,-589 -85,-914 9,-329 39,-284 -262,-395 -197,-72 -493,-236 -606,-335 -51,-43 -132,-104 -181,-135 l -90,-57 17,113 c 24,165 -6,286 -92,368 -83,78 -79,133 10,169 31,13 109,72 174,131 93,86 120,130 131,209 7,55 22,123 33,151 37,94 80,400 99,701 23,343 37,399 154,618 54,98 93,211 102,297 25,207 114,473 154,458 18,-7 32,-39 32,-71 0,-32 13,-90 28,-129 z m -8555.99995,-51 c -9,-25 -5,-34 11,-24 15,9 39,-31 58,-99 25,-94 25,-139 0,-244 -50,-201 -66,-216 -101,-97 -24,80 -24,136 -3,247 35,177 17,211 -23,45 -25,-99 -34,-112 -51,-72 -15,34 -18,22 -11,-42 16,-127 -10,-311 -37.000003,-268 -28,44 -28,403 0,386 11.000003,-7 27.000003,51 34.000003,130 7,79 27,177 44,219 l 30,75 32,-107 c 18,-60 26,-126 17,-149 z m 10791.99995,-45 -27,-175 -350,-4 c -224,-2 -409,-18 -516,-43 -92,-23 -173,-41 -179,-41 -35,0 11,65 187,265 228,258 225,257 651,252 225,-2 270,-9 266,-41 -2,-20 -17,-116 -32,-213 z m -10436.99995,51 c 40,-85 39,-91 -35,-252 l -75,-165 -51,85 -52,85 65,167 c 36,92 75,167 86,167 12,0 40,-39 62,-87 z m 7859.99995,-64 c 51,0 57,-9 48,-87 -9,-79 -18,-87 -85,-87 -126,0 -194,95 -151,211 14,37 21,37 73,3 32,-22 84,-40 115,-40 z m 2951,-395 -74,-109 c -94,-139 -177,-219 -178,-170 0,20 -26,99 -57,176 l -58,141 123,168 c 68,92 132,158 143,146 12,-11 39,-95 61,-187 z m 546,-404 -81,-48 -15,116 c -8,65 -20,138 -24,164 -10,44 202,532 222,512 5,-5 22,-141 38,-303 32,-328 29,-339 -140,-441 z m -11311.99995,214 -62,96 -62,95 72,159 c 40,88 75,157 78,154 2,-3 -3,-118 -12,-255 z m 11012.99995,-100 c -50,-75 -99,-132 -108,-126 -8,5 -22,53 -31,104 -49,310 -51,286 50,449 52,84 102,146 111,137 9,-9 28,-76 43,-149 43,-211 34,-268 -65,-415 z m -665,387 c -4,-48 -18,-99 -30,-115 -13,-16 -33,-73 -43,-127 -21,-98 -22,-98 -143,-105 -285,-15 -647,-59 -792,-96 -86,-22 -161,-35 -166,-29 -18,18 37,346 67,395 16,27 64,56 105,64 40,9 89,29 107,44 55,45 221,62 570,58 l 332,-3 z m -10556.99995,-16 c 27,-52 28,-83 3,-169 -17,-58 -39,-139 -49,-180 l -19,-75 -44,83 c -27,54 -37,109 -27,151 66,281 79,299 136,190 z m 10697.99995,-404 c 0,-35 -39,-87 -110,-147 -62,-51 -116,-89 -120,-83 -9,8 72,424 101,523 13,45 127,-214 129,-293 z m -10928.99995,-10 c -18,-91 -39,-144 -50,-127 -35,58 -44,291 -14,367 l 30,75 33,-78 c 27,-66 27,-107 1,-237 z m 362,183 64,-95 -42,-180 c -24,-100 -50,-181 -57,-181 -7,0 -39,46 -70,102 -43,78 -52,123 -40,193 15,83 67,255 76,255 2,0 34,-42 69,-94 z m 10827.99995,-504 -109,-109 -25,97 c -76,288 -76,287 32,428 55,71 108,130 117,131 9,1 28,-57 42,-130 60,-321 62,-298 -57,-417 z m 426,279 c 2,-67 -10,-86 -63,-108 -37,-14 -92,-22 -124,-18 -57,8 -55,11 48,161 92,136 106,148 121,100 8,-29 17,-91 18,-135 z m -11516.99995,-486 -41,113 c -40,107 -44,276 -9,442 14,61 14,61 58,-25 40,-79 42,-112 18,-309 z m 10550.99995,430 c -9,-56 -27,-157 -42,-226 l -27,-125 h -286 c -158,0 -378,-16 -490,-36 -163,-29 -553,-147 -746,-225 -35,-15 -37,4 -20,147 29,243 65,299 197,302 74,3 146,29 231,82 173,110 506,176 894,179 l 305,2 z m -10163.99995,-288 14,-150 -48,59 c -52,62 -63,180 -32,332 l 16,85 18,-88 c 9,-48 23,-155 32,-238 z m 10551.99995,-39 c 11,-53 -8,-86 -108,-186 -83,-84 -124,-111 -131,-87 -6,20 -30,119 -54,220 l -44,183 121,109 c 66,60 127,102 135,92 7,-9 25,-73 41,-142 14,-69 33,-154 40,-189 z m -10721.99995,-117 c -28,-319 -44,-337 -138,-151 -43,86 -49,128 -35,267 18,168 37,278 51,278 4,0 36,-50 71,-112 59,-101 64,-129 51,-282 z m 11172.99995,233 c 60,-67 60,-70 7,-22 -51,45 -69,49 -102,24 -23,-17 -46,-59 -53,-92 -8,-45 -11,-36 -14,32 -3,71 6,94 36,94 25,0 34,14 25,37 -9,24 1,38 27,38 22,0 32,-8 23,-17 -9,-9 14,-51 51,-94 z m -258,-478 -92,-125 -15,180 c -9,98 -24,192 -34,209 -11,17 26,74 89,141 l 107,111 17,-108 c 9,-59 18,-147 18,-195 1,-63 -24,-123 -90,-213 z m 172,257 c -24,-50 -27,-43 -27,56 0,100 3,106 27,57 19,-40 19,-72 0,-113 z m -11291.99995,-216 4,-141 14,111 15,112 69,-140 c 54,-108 68,-168 62,-262 l -7,-122 -56,95 c -30,53 -55,118 -55,145 0,27 -16,49 -35,49 -19,0 -43,33 -51,74 -9,41 -27,81 -39,90 -13,8 -22,89 -22,182 v 167 l 49,-109 c 27,-62 50,-171 52,-251 z m 10610.99995,147 c 9,-48 27,-101 41,-118 17,-22 -9,-52 -94,-106 -141,-91 -166,-95 -143,-20 26,84 86,299 101,363 16,67 49,74 66,13 6,-25 19,-83 29,-132 z m -10245.99995,-37 c 0,-30 -7,-144 -16,-251 -16,-196 -16,-196 -61,-140 -35,45 -46,100 -45,249 0,105 7,219 16,252 l 16,61 45,-58 c 25,-31 45,-81 45,-113 z m 10082.99995,118 c -1,-23 -26,-128 -56,-231 l -54,-188 -333,-16 c -222,-11 -397,-34 -527,-71 -196,-54 -468,-190 -528,-263 -60,-73 -74,-38 -73,181 0,318 -2,315 229,414 346,149 637,203 1141,214 180,4 203,-1 201,-40 z m 545,-417 -124,-126 -124,-126 v 79 c 0,45 -12,139 -27,210 l -27,129 118,123 c 66,67 126,123 135,123 8,0 23,-93 33,-207 z m 320,85 c -19,-51 -24,-36 -25,90 -1,84 7,161 17,172 29,29 36,-193 8,-262 z m -168,-501 -92,-137 -7,270 -7,270 80,97 c 45,54 89,92 99,86 10,-7 19,-110 19,-230 0,-211 -3,-223 -92,-356 z m -10629.99995,150 c -9,0 -41,18 -71,39 -58,42 -67,118 -36,300 l 16,100 19,-75 c 11,-41 35,-140 53,-219 19,-79 27,-145 19,-145 z m 5509.99995,336 c 53,-59 72,-63 194,-51 91,9 149,3 178,-19 40,-30 38,-34 -15,-63 -64,-35 -244,-44 -329,-16 -30,9 -72,50 -92,90 -69,135 -35,167 64,59 z m 4683,-211 15,-139 -142,-118 -143,-118 -17,167 c -9,92 -23,193 -31,225 -12,48 7,72 115,146 71,48 137,88 147,88 10,0 23,-25 30,-56 6,-31 18,-119 26,-195 z m -589,-500 c -41,-75 -57,-45 -68,124 -9,146 -78,192 -251,165 -89,-13 -143,-42 -222,-116 -92,-86 -120,-98 -225,-99 -67,-1 -192,-17 -280,-36 -88,-19 -163,-31 -167,-28 -3,4 -9,50 -12,102 -6,91 -1,98 162,202 182,116 465,208 730,238 208,22 516,28 516,9 0,-37 -153,-505 -183,-561 z m 885,131 c -13,-109 -29,-142 -94,-191 -184,-139 -180,-142 -170,131 l 10,242 114,120 115,120 21,-145 c 11,-80 13,-205 4,-277 z m -10646.99995,85 c 14,-107 11,-116 -30,-99 -42,15 -41,11 5,-56 29,-41 59,-129 69,-196 9,-67 24,-140 32,-163 14,-36 10,-36 -28,-5 -67,56 -107,153 -126,309 -13,104 -10,144 11,144 19,0 16,19 -9,56 -22,32 -39,108 -39,176 0,113 4,119 50,94 27,-15 49,-53 49,-85 0,-33 7,-111 16,-175 z m 9903.99995,-209 c -63,-45 -119,-78 -124,-73 -4,4 25,92 64,193 41,103 80,217 90,255 25,102 52,84 69,-48 30,-222 25,-241 -99,-327 z m -10115.99995,324 c 44,-76 107,-351 86,-376 -8,-9 -132,325 -148,402 -19,93 -3,87 62,-26 z m 343,16 c 69,-52 70,-58 57,-222 -9,-113 -5,-175 14,-186 15,-10 28,-36 28,-60 0,-32 -18,-23 -73,33 -56,58 -79,112 -98,238 -29,183 -32,251 -13,251 7,0 46,-24 85,-54 z m 10216.99995,-291 c -9,-135 -17,-246 -18,-248 -2,-2 -56,-12 -120,-22 l -117,-17 v 162 162 l 129,101 c 71,56 132,103 136,104 4,1 -1,-107 -10,-242 z m -3339,157 c 9,-22 45,-38 85,-38 108,0 106,-39 -5,-145 -99,-94 -108,-97 -290,-102 -208,-4 -309,30 -168,57 103,19 160,78 181,186 14,70 25,79 100,79 51,0 89,-14 97,-37 z m -6698.99995,-431 c -44,40 -56,78 -56,176 0,69 4,120 10,115 5,-6 44,-93 84.99995,-194 75,-180 69,-196 -38.99995,-97 z m 9563.99995,65 -84,45 96,66 c 52,37 104,66 114,66 11,0 19,-50 19,-112 0,-127 -17,-135 -145,-65 z m -9579.99995,-399 -68,66 c -42,41 -77,112 -93,189 -41,191 -37,207 33,154 44,-34 67,-90 93,-227 z m 87.99995,245 c 55,-47 69,-87 88,-238 11,-101 14,-182 5,-182 -45,0 -123,131 -156.99995,267 -59,234 -52,251 63.99995,153 z m -210.99995,-314 c 20,-31 24,-56 11,-56 -27,0 -174,279 -174,329 0,58 96,-60 112,-138 9,-43 32,-103 51,-135 z m 8560.99995,32 v -111 l -120,-26 c -66,-15 -131,-26 -143,-26 -14,0 -24,67 -24,148 v 149 l 154,36 c 167,38 209,33 163,-23 -17,-21 -30,-87 -30,-147 z m -8193,-167 c -7,12 -20,88 -28,169 l -15,148 128,-195 c 71,-107 124,-200 118,-207 -16,-16 -185,55 -203,85 z m 7854,38 c 3,-84 -28,-110 -136,-110 -34,0 -81,-10 -106,-24 -39,-21 -46,-9 -59,105 -8,72 -10,135 -3,141 6,7 69,31 140,56 l 130,45 15,-67 c 9,-37 17,-103 19,-146 z m -8027,-72 36,-122 -65,61 c -67.99995,65 -131.99995,193 -131.99995,266 0,82 121.99995,-73 160.99995,-205 z m 7684,-78 c -19,-52 -228,-177 -236,-141 -2,10 -9,71 -15,136 -12,117 -11,119 89,168 139,69 156,66 170,-29 6,-44 3,-105 -8,-134 z m -7489,-144 33,-97 -70,69 c -60,59 -146,247 -146,318 0,47 147,-93 148,-142 1,-28 16,-95 35,-148 z m 7164,-45 c -28,-36 -175,-146 -194,-146 -4,0 -9,61 -9,135 0,132 4,137 99,197 54,34 107,57 117,51 10,-6 19,-53 19,-104 0,-52 -14,-112 -32,-133 z m -6963,-96 c 15,-77 13,-80 -36,-53 -51,28 -98,115 -150,275 -14,47 -26,89 -26,93 0,3 44,-12 97,-35 85,-36 99,-53 99,-121 0,-42 7,-114 16,-159 z m -357,80 c -27,45 -71,110 -93.99995,145 l -44,63 60.99995,-40 c 34,-21 82,-81 107,-133 59,-119 38,-143 -30,-35 z m 533,-53 c 112,-182 114,-238 4,-199 -101,36 -120,70 -138,250 -17,185 -9,181 134,-51 z m 6451,-148 -97,-57 -8,96 c -7,81 4,106 79,174 47,45 94,81 104,82 11,1 18,-53 18,-120 0,-114 -4,-123 -96,-175 z m -6726,-108 c -18,15 -38,22 -45,14 -8,-7 -35,32 -62,88 -27,55 -53,96 -59,90 -4,-5 -9,23 -9,63 v 71 l 67,-65 c 36,-35 83,-115 104,-176 28,-86 30,-105 4,-85 z m 6597,108 c 7,-74 -1,-84 -106,-130 -141,-62 -143,-62 -112,-2 14,27 26,72 26,100 0,51 111,132 159,118 14,-3 28,-42 33,-86 z m -6512,-130 c -62,169 -64,195 -6,142 24,-22 64,-104 87,-182 73,-232 9,-201 -81,40 z m 325,-331 c 9,-60 5,-65 -37,-42 -52,29 -91,111 -152,319 -36,126 -36,133 5,116 23,-10 60,-23 82,-29 37,-11 68,-122 102,-364 z m 349,-271 c -7,0 -77,33 -155,73 l -141,73 -30,178 c -16,98 -30,209 -30,247 0,60 10,51 78,-69 42,-76 86,-142 99,-147 25,-10 199,-355 179,-355 z m 2694,417 c 48,-14 87,-25 90,-26 1,-1 10,-27 19,-59 16,-52 10,-56 -81,-56 -70,0 -120,19 -173,65 -76,64 -90,119 -60,231 17,66 23,62 78,-49 29,-59 66,-90 127,-106 z m -3140,-225 c 10,-42 -2,-35 -59,33 -40,48 -72,98 -72,111 0,42 118,-87 131,-144 z m 7338,-167 c 37,-147 57,-179 220,-344 99,-100 170,-179 157,-175 -13,3 -49,-27 -82,-68 l -57,-73 -118,49 c -175,71 -340,231 -375,364 -27,100 -25,120 29,222 33,62 85,169 116,236 l 57,123 6,-85 c 4,-47 25,-159 47,-249 z m -6065,-1629 c -56,-510 -197,-880 -438,-1154 -134,-151 -402,-337 -427,-295 -11,18 -34,17 -75,-4 -33,-16 -3,27 73,102 181,181 242,288 312,556 92,352 72,730 -66,1209 -57,203 -210,584 -256,639 -17,21 -50,100 -73,176 -23,76 -62,197 -88,270 -26,73 -47,142 -47,154 0,13 68,-12 150,-54 153,-78 233,-170 260,-302 8,-37 24,-68 34,-68 11,0 38,-56 60,-124 22,-68 48,-127 57,-132 26,-12 120,-328 176,-596 91,-430 60,-836 -93,-1216 -57,-141 -242,-411 -346,-507 -106,-96 -78,-109 38,-18 93,72 260,312 330,472 84,194 146,529 146,787 -1,399 -40,603 -199,1050 -54,154 -67,217 -49,251 67,123 149,332 149,378 0,29 12,60 25,68 14,9 25,71 25,139 0,69 10,124 22,124 13,0 45,-48 73,-107 177,-380 288,-1251 227,-1798 z m -1143,1703 c 16,-34 36,-89 46,-123 16,-57 13,-59 -21,-26 -57,57 -126,234 -85,220 18,-5 45,-37 60,-71 z m 108,-308 c 0,-32 -12,-18 -48,59 -27,59 -27,60 9,14 21,-27 39,-60 39,-73 z m -609,-66 c 12,0 72,-35 132,-78 158,-111 461,-248 546,-248 66,0 77,-15 145,-182 196,-482 259,-797 246,-1237 -11,-381 -37,-493 -166,-714 -79,-137 -230,-298 -278,-298 -7,0 41,104 107,232 142,275 184,478 165,793 -23,404 -205,767 -583,1168 -131,137 -271,296 -312,351 -80,106 -205,319 -205,346 0,37 43,14 111,-58 38,-41 80,-75 92,-75 z m 7769,-326 146,-79 -118,-135 c -64,-75 -125,-137 -136,-137 -11,0 -74,28 -140,62 -127,66 -221,171 -280,314 -34,83 -33,89 64,235 l 99,148 46,-96 c 26,-54 75,-128 110,-165 35,-37 129,-103 209,-147 z m 722,30 c -4,4 6,26 22,50 19,24 91,51 177,65 81,14 155,26 164,27 11,2 19,-6 19,-17 0,-21 -367,-140 -382,-125 z m 415,-180 c -75,-29 -142,-48 -148,-42 -5,5 29,77 76,160 87,150 157,198 303,205 49,2 52,-4 30,-63 -50,-135 -122,-207 -261,-260 z m 385,206 c -156,-117 -172,-112 -106,31 43,91 52,95 154,66 58,-16 56,-19 -48,-97 z m -5238,-53 c -15,-56 -51,-118 -81,-140 l -54,-38 h 53 c 30,0 82,10 116,24 80,31 80,7 2,-110 -84,-127 -52,-165 52,-62 76,75 84,77 84,29 0,-29 -20,-87 -43,-128 -50,-90 -19,-143 36,-61 51,78 80,71 80,-19 0,-50 26,-104 80,-163 100,-110 230,-137 651,-137 229,0 357,-13 506,-52 284,-74 330,-103 349,-221 27,-164 -31,-241 -266,-356 -268,-130 -422,-157 -852,-142 -367,11 -335,-13 58,-46 218,-18 219,-18 341,-137 67,-65 187,-156 266,-203 83,-48 142,-99 139,-120 -3,-22 41,-54 118,-84 98,-38 158,-44 300,-31 98,8 212,27 253,42 62,22 84,19 120,-13 66,-61 247,-78 349,-34 l 87,36 5,-74 c 4,-41 17,-96 31,-122 27,-51 194,-147 256,-147 27,0 38,-27 38,-93 0,-106 97,-268 192,-319 59,-31 61,-42 63,-312.00001 2,-153 0,-279 -4,-279 -3,0 -79,79 -169,176 -323,349.00001 -527,470.00001 -1115,665.00001 -197,66 -395,139 -443,163 -115,59 -295,220 -295,262 0,19 -13,42 -28,52 -46,29 0,-120 56,-181 27,-30 40,-59 29,-66 -154,-90 -978,-111 -1287,-33 -224,57 -308,99 -440,221 -73,68 -101,114 -100,164 l 1,68 40,-75 c 22,-41 44,-62 50,-45 5,16 -3,52 -17,80 -14,27 -25,81 -25,120 2,61 10,52 62,-65 60,-135 138,-223 155,-174 5,14 -22,58 -60,98 -83,88 -102,279 -30,294 48,10 216,-117 216,-162 0,-32 148,-133 196,-133 16,0 21,12 12,27 -9,15 7,43 34,63 29,20 59,77 68,127 15,77 8,98 -42,137 -81,63 -178,58 -259,-13 l -68,-60 -68,52 c -75,56 -116,46 -243,-58 l -62,-52 -135,63 c -102,48 -209,70 -442,92 -246,23 -327,40 -412,89 -120,71 -251,278 -251,398 1,93 70,250 158,356 71,87 112,88 112,3 0,-66 80,-180 182,-259 46,-36 170,-85 287,-115 199,-51 215,-51 491,-12 384,52 499,49 741,-21 282,-82 389,-97 549,-77 226,29 376,174 272,262 -21,18 -144,43 -274,57 -322,34 -580,157 -694,334 -43,66 -78,130 -78,142 0,38 -274,396 -334,437 -32,20 -111,52 -175,71 l -118,32 238,2 c 178,3 257,14 313,47 41,24 76,54 76,66 0,13 7,18 14,10 8,-8 2,-61 -13,-117 z m 547,-931 c 30,0 115,-7 188,-16 88,-11 128,-8 117,9 -8,14 -65,33 -127,41 -60,9 -139,23 -173,32 -46,11 -61,5 -61,-25 0,-25 21,-41 56,-41 z m 442,0 c 221,-3 387,-105 387,-238 0,-90 -38,-133 -194,-212 -98,-51 -134,-55 -381,-43 -150,7 -305,22 -344,32 -47,12 -66,9 -56,-8 25,-41 400,-90 563,-73 208,22 486,201 486,311 0,77 -163,224 -283,254 -134,34 -282,36 -282,3 0,-14 47,-26 104,-26 z m -2541,-226 c -61,-63 -47,-132 50,-233 81,-86 287,-142 505,-139 l 148,2 -156,35 c -212,47 -290,100 -377,254 -40,73 -84,132 -96,132 -13,0 -46,-23 -74,-51 z m 273,-253 110,-77 -98,15 c -162,23 -294,157 -266,268 19,72 50,59 99,-41 26,-49 95,-123 155,-165 z m 1819,-561 c -202,-35 -368,-89 -368,-118 0,-32 69,-23 166,22 71,32 198,44 552,53 431,11 541,29 407,65 -95,26 -563,12 -757,-22 z m 1465,-330 c -117,-36 -285,-35 -401,4 -30,11 -55,9 -55,-4 0,-44 138,-104 332,-144 509,-107 751,-219 1009,-469 97,-94.00001 184,-172.00001 193,-172.00001 9,0 -23,59 -71,132.00001 -48,72 -94,175 -102,227 -11,73 -32,103 -80,125 -95,41 -174,120 -174,175 0,44 -13,47 -133,32 -142,-18 -269,18 -331,94 -40,50 -31,50 -187,0 z m 340,-136 c 50,-13 113,-19 139,-11 27,8 71,20 98,28 37,11 49,2 49,-35 0,-52 130,-180 182,-180 25,0 56,-66 134,-287 6,-14 -39,21 -98,79 -227,221 -481,337 -934,425 l -231,44 197,21 c 108,11 207,32 220,45 15,15 47,1 88,-39 36,-35 106,-76 156,-90 z m 1799,2426 c -66,-6 -48,-10 55,-13 84,-2 154,-11 154,-18 0,-25 -124,-231 -155,-258 -16,-13 -134,-32 -261,-43 l -232,-18 116,154 c 64,84 128,154 141,154 14,0 18,11 10,24 -20,33 33,131 60,114 12,-7 28,-5 34,5 6,11 95,20 196,20 166,0 182,-5 162,-43 -23,-43 -92,-62 -280,-78 z m -133,26 c 17,17 25,38 17,46 -8,7 -21,-7 -31,-32 -13,-35 -10,-38 14,-14 z m 1582,51 c 79,-32 159,-81 178,-110 32,-48 28,-63 -47,-163 -93,-123 -286,-220 -444,-221 -163,-2 -386,-146 -386,-249 0,-92 244,-176 281,-97 8,17 9,-2 2,-44 -9,-47 -56,-113 -124,-177 -116,-107 -146,-116 -592,-186 -238,-38 -330,-98 -330,-214 0,-73 12,-93 68,-114 37,-15 93,-21 123,-16 77,15 69,-8 -37,-112 -134,-131 -176,-146 -500,-185 -351,-42 -391,-59 -391,-169 0,-102 37,-143 134,-144 72,-1 71,-3 -44,-63 -141,-76 -183,-78 -477,-34 -217,32 -226,37 -212,91 16,68 13,69 -80,22 -40,-19 -111,-42 -158,-52 -50,-10 50,52 245,151 182,92 369,193 418,224 48,31 167,109 265,173 98,64 183,116 191,116 29,0 335,224 603,441 285,232 766,714 899,900 79,111 238,288 258,288 7,0 78,-25 157,-56 z m -907,-169 c -75,-123 -97,-141 -203,-166 l -118,-29 93,-3 c 125,-4 122,-23 -46,-250 -8,-10 -329,-102 -361,-103 -25,-1 45,140 121,243 40,54 83,83 127,86 58,3 59,4 11,14 -31,6 -55,14 -55,18 0,22 128,238 154,260 28,23 259,94 331,102 17,2 31,-6 31,-16 -1,-10 -39,-81 -85,-156 z m -5640,-200 c 115,-192 320,-380 522,-481 107,-53 228,-96 270,-96 41,-1 108,-19 149,-41 40,-23 105,-58 143,-78 38,-20 65,-40 61,-43 -8,-7 -352,53 -352,62 0,2 -29,9 -65,13 -98,12 -567,247 -627,316 -30,32 -111,155 -181,272 -177,297 -218,328 -418,319 -88,-4 -180,-17 -203,-29 -83,-39 -42,27 49,79 119,68 170,68 302,4 149,-73 286,-190 350,-297 z m 5974,26 c -30,-16 -46,-41 -38,-55 17,-27 -204,-272 -244,-272 -12,0 -8,17 8,37 19,24 21,38 5,38 -14,0 -48,-32 -74,-71 -28,-38 -78,-85 -114,-104 -36,-20 -59,-49 -53,-66 17,-44 -173,-212 -328,-291 -74,-37 -140,-62 -146,-56 -29,29 181,206 293,247 118,43 166,79 139,106 -7,7 -46,-5 -87,-27 -123,-64 -135,-45 -42,70 74,92 118,119 269,169 110,36 220,92 276,143 53,45 74,75 49,65 -81,-32 119,240 236,319 58,39 110,72 115,72 5,0 -12,-32 -37,-72 -73,-113 -168,-220 -227,-252 z m -1533,-66 106,-43 -54,-58 c -30,-32 -97,-89 -149,-126 l -95,-66 -104,72 c -121,83 -233,202 -255,269 -10,29 7,70 45,113 33,37 79,99 104,139 l 44,73 31,-73 c 17,-40 74,-115 126,-165 53,-50 143,-112 201,-135 z m -5324,160 c 8,-25 51,-50 101,-60 103,-19 113,-49 24,-72 -35,-9 -109,-45 -164,-81 l -100,-64 15,110 c 9,60 29,154 44,209 30,104 37,100 80,-42 z m 90,30 c 0,-15 -17,-25 -37,-25 -20,0 -37,10 -37,25 0,13 17,25 37,25 20,0 37,-12 37,-25 z m 6654,-136 c -69,-103 -107,-133 -235,-182 -84,-32 -163,-58 -175,-58 -11,0 18,51 65,114 47,63 86,123 86,133 0,10 58,39 129,65 71,25 139,55 153,67 28,27 62,28 62,3 -1,-11 -39,-75 -85,-142 z m -1737,-313 119,-102 167,129 c 92,71 161,113 154,93 -80,-203 -104,-248 -134,-248 -20,0 -32,-14 -29,-32 8,-32 -46,-120 -152,-248 -55,-67 -83,-78 -228,-89 -197,-16 -203,-3 -77,171 l 88,123 h 158 c 89,0 158,11 158,25 0,14 -39,25 -86,25 -63,0 -82,9 -72,35 9,24 -24,16 -103,-25 -64,-33 -133,-60 -154,-60 -42,0 -217,186 -239,255 -9,30 13,81 64,147 74,95 122,125 122,76 0,-36 113,-165 244,-275 z m 887,68 c -72,-104 -117,-144 -175,-155 -94,-19 -316,-21 -316,-2 0,7 28,69 62,138 55,111 70,124 142,124 45,0 92,10 104,23 13,13 63,28 110,34 47,6 99,12 115,14 16,2 35,-5 42,-16 7,-12 -31,-84 -84,-160 z m -4491,5 c 41,0 64,-14 64,-38 0,-23 24,-37 62,-37 49,0 61,-13 61,-63 0,-45 13,-63 48,-63 26,0 55,-12 64,-28 42,-67 -356,109 -433,193 -46,49 -50,66 -24,98 43,52 66,48 82,-12 9,-34 33,-50 76,-50 z m 221,62 c 9,-25 -2,-37 -34,-37 -49,0 -64,27 -33,58 27,27 51,19 67,-21 z m 2937,-124 c 16,-33 68,-106 117,-161 l 88,-100 -62,-40 c -35,-21 -93,-56 -127,-78 -49,-30 -71,-32 -98,-9 -20,16 -36,41 -36,54 0,14 -22,53 -49,88 -70,90 -61,156 31,236 99,86 102,86 136,10 z m -2860,-13 c 8,-15 4,-25 -11,-25 -14,0 -26,10 -26,25 0,13 5,24 11,24 6,0 18,-11 26,-24 z m 4467,-69 c -49,-93 -193,-201 -319,-241 -193,-61 -216,-57 -163,27 77,122 137,163 303,207 214,57 206,57 179,7 z m -5351,-62 c -22,-32 -38,-108 -38,-176 0,-93 -9,-120 -39,-120 -42,0 -183,77 -182,100 0,35 221,251 256,251 38,0 38,-5 3,-55 z m 3490,-43 c 9,-27 44,-90 78,-141 33,-51 53,-102 42,-112 -11,-10 -74,-38 -138,-63 l -118,-45 -85,84 c -47,46 -85,104 -85,127 0,26 52,75 129,120 153,91 158,92 177,30 z m -3209,-123 c -16,-5 -41,2 -56,18 -15,15 -53,28 -84,28 -62,0 -64,3 -43,58 12,30 32,25 113,-29 54,-36 85,-70 70,-75 z m 4526,-9 c -94,-111 -107,-118 -259,-134 -89,-10 -168,-12 -175,-3 -8,8 20,68 63,134 73,112 86,122 206,135 203,24 263,24 263,4 0,-10 -44,-71 -98,-136 z m -1648,-52 c 0,-16 34,-65 76,-108 l 75,-79 -69,-15 c -39,-7 -136,-30 -217,-49 l -148,-36 4,127 2,127 120,40 c 126,42 157,41 157,-7 z m 753,-55 c -72,-96 -96,-105 -335,-123 l -160,-11 113,35 c 61,19 182,74 269,121 88,48 163,82 168,76 6,-5 -19,-50 -55,-98 z m 1101,-64 c -69,-78 -125,-110 -260,-152 -95,-29 -178,-46 -184,-39 -7,6 34,62 89,124 81,89 131,120 242,150 157,42 203,48 203,30 0,-7 -41,-57 -90,-113 z m -710,-252 -206,-40 107,128 c 102,120 117,128 275,155 93,15 177,29 188,31 10,2 -20,-51 -69,-116 -87,-116 -94,-120 -295,-158 z m -86,184 c -1,-11 -42,-68 -93,-128 -83,-98 -106,-110 -251,-130 -299,-44 -300,-43 -150,112 102,105 153,138 221,146 168,18 273,18 273,0 z m -518,-122 c -166,-173 -211,-190 -492,-183 -134,4 -251,-1 -260,-11 -10,-9 -90,-16 -180,-16 -131,0 -152,6 -112,28 27,16 82,59 123,97 51,47 129,81 256,109 100,23 187,37 192,31 5,-5 -43,-56 -106,-113 -162,-144 -101,-129 82,21 140,115 163,125 306,134 86,5 188,10 228,13 l 73,5 z m 1404,104 c 0,-4 -59,-51 -130,-103 l -129,-93 74,81 c 40,44 96,91 122,102 63,26 63,26 63,13 z m -535,-364 c -44,-18 -73,-43 -65,-57 10,-15 -6,-18 -41,-7 -30,10 -49,9 -41,-4 7,-11 -25,-22 -70,-22 -101,-3 -89,27 68,183 85,84 144,117 278,154 95,27 175,49 180,50 4,1 -14,-28 -42,-66 -73,-104 -179,-195 -267,-231 z m -159,127 c -18,-25 -89,-99 -159,-163 -102,-93 -157,-122 -291,-154 -91,-21 -178,-35 -192,-30 -14,5 48,81 139,170 165,162 277,213 478,222 51,2 53,-2 25,-45 z m -602,-207 -176,-179 -253,-12 -254,-13 202,167 c 210,174 287,203 571,213 l 86,3 z m -416,76 c -26,-29 -112,-102 -191,-162 l -144,-110 h -336 -335 l 221,115 c 122,63 236,127 254,142 43,37 197,61 407,65 l 170,3 z m -1144,-247 c -36,-1 -170,122 -170,156 0,8 64,23 141,32 78,10 175,32 215,50 89,39 453,50 417,12 -33,-33 -554,-250 -603,-250 z m 2093,103 c 0,-11 -47,-40 -103,-62 -104,-42 -99,-14 9,47 70,39 94,43 94,15 z m -984,-464 c 0,39 315,310 361,310 24,1 117,22 204,48 88,27 166,49 171,51 6,0 -27,-39 -73,-88 -118,-125 -663,-388 -663,-321 z m 4715,361 c 11,40 20,44 47,21 26,-21 27,-36 6,-62 -36,-46 -69,-21 -53,41 z m -6860,-6 c 16,-16 29,-45 29,-63 0,-40 -109,-157 -146,-157 -39,0 -31,65 13,102 23,19 34,57 28,91 -12,62 27,77 76,27 z m 1578,-182 -137,-69 -152,78 c -84,43 -152,83 -152,87 0,9 516,-9 553,-20 14,-4 -37,-38 -112,-76 z m 678,23 c -172,-153 -221,-169 -435,-152 -280,24 -290,33 -147,130 124,86 153,91 557,106 l 123,4 z m -640,-187 -108,10 c -58,7 -119,24 -134,39 -35,36 0,33 131,-12 z m 31,-503 c 243,-81 252,-86 252,-157 0,-99 103,-231.00001 211,-271.00001 80,-29 86,-40 74,-105 -8,-40 -15,-167 -15,-282 0,-116 -9,-211 -21,-211 -11,0 -61,67 -110,149 -101,166 -265,325 -404,391 -50,25 -136,75 -190,112 -54,37.00001 -168,105.00001 -254,151.00001 -156,83 -373,260 -373,302 0,13 36,24 80,26 61,2 303,53 330,69 3,3 41,-17 86,-43 45,-26 195,-84 334,-131 z m -5258,128 c 0,-15 -12,-25 -26,-25 -14,0 -19,10 -11,25 8,13 20,24 27,24 5,0 10,-11 10,-24 z"
     id="path1899"
     style="display:inline" /></g></svg>
